<svg width="45" height="45" viewBox="0 0 45 45" fill="none" xmlns="http://www.w3.org/2000/svg">
<path d="M39.525 13.1251C39.201 12.5638 38.7371 12.096 38.1785 11.7674C37.6198 11.4388 36.9855 11.2606 36.3375 11.2501H12.3375L11.25 7.01262C11.1401 6.60357 10.895 6.24377 10.5545 5.99182C10.214 5.73987 9.79831 5.61062 9.375 5.62512H5.625C5.12772 5.62512 4.65081 5.82267 4.29917 6.1743C3.94754 6.52593 3.75 7.00284 3.75 7.50012C3.75 7.9974 3.94754 8.47432 4.29917 8.82595C4.65081 9.17758 5.12772 9.37512 5.625 9.37512H7.95L13.125 28.6126C13.2349 29.0217 13.48 29.3815 13.8205 29.6334C14.161 29.8854 14.5767 30.0146 15 30.0001H31.875C32.2213 29.9991 32.5605 29.9022 32.855 29.7201C33.1495 29.5381 33.3879 29.2781 33.5438 28.9689L39.6938 16.6689C39.9603 16.1102 40.0844 15.4941 40.055 14.8758C40.0255 14.2574 39.8434 13.656 39.525 13.1251Z" fill="#CD4E5E"/>
<path d="M14.0625 39.375C15.6158 39.375 16.875 38.1158 16.875 36.5625C16.875 35.0092 15.6158 33.75 14.0625 33.75C12.5092 33.75 11.25 35.0092 11.25 36.5625C11.25 38.1158 12.5092 39.375 14.0625 39.375Z" fill="#CD4E5E"/>
<path d="M32.8125 39.375C34.3658 39.375 35.625 38.1158 35.625 36.5625C35.625 35.0092 34.3658 33.75 32.8125 33.75C31.2592 33.75 30 35.0092 30 36.5625C30 38.1158 31.2592 39.375 32.8125 39.375Z" fill="#CD4E5E"/>
</svg>
