<svg width="313" height="104" viewBox="0 0 313 104" fill="none" xmlns="http://www.w3.org/2000/svg">
<path d="M0 0.5H312" stroke="black"/>
<path d="M276 91.5H312.5M0 91.5H169" stroke="black"/>
<path d="M312.5 0L312.5 92" stroke="black"/>
<path d="M0.499996 0L0.499996 92" stroke="black"/>
<path d="M39.7218 56.072C39.5618 56.072 39.4498 56.016 39.3858 55.904C39.3218 55.792 39.2898 55.672 39.2898 55.544C39.3058 55.272 39.3698 55.12 39.4818 55.088C39.5938 55.056 39.7298 55.04 39.8898 55.04C40.4018 55.04 40.7618 54.952 40.9698 54.776C41.1778 54.584 41.3058 54.352 41.3538 54.08C41.4178 53.792 41.4498 53.496 41.4498 53.192V41.744H39.7938C39.2498 41.76 38.8258 41.88 38.5218 42.104C38.2178 42.312 37.9938 42.648 37.8498 43.112C37.7058 43.56 37.5778 44.144 37.4658 44.864C37.4498 45.008 37.3458 45.12 37.1538 45.2C36.9778 45.264 36.8018 45.296 36.6258 45.296C36.5138 45.296 36.3858 45.256 36.2418 45.176C36.1138 45.096 36.0498 44.976 36.0498 44.816L36.1218 41.432C36.1218 41.208 36.1858 41.056 36.3138 40.976C36.4418 40.896 36.5938 40.856 36.7698 40.856H48.5058C48.6818 40.856 48.8258 40.896 48.9378 40.976C49.0658 41.056 49.1298 41.208 49.1298 41.432L49.2258 44.816C49.2258 44.976 49.1538 45.096 49.0098 45.176C48.8818 45.256 48.7538 45.296 48.6258 45.296C48.4658 45.296 48.2978 45.264 48.1218 45.2C47.9458 45.12 47.8418 45.008 47.8098 44.864C47.6978 44.144 47.5618 43.56 47.4018 43.112C47.2578 42.648 47.0338 42.312 46.7298 42.104C46.4418 41.88 46.0178 41.76 45.4578 41.744H43.8258V53.192C43.8418 53.496 43.8738 53.792 43.9218 54.08C43.9698 54.352 44.0978 54.584 44.3058 54.776C44.5298 54.952 44.8898 55.04 45.3858 55.04C45.5458 55.04 45.6818 55.056 45.7938 55.088C45.9058 55.12 45.9698 55.272 45.9858 55.544C45.9858 55.672 45.9538 55.792 45.8898 55.904C45.8258 56.016 45.7138 56.072 45.5538 56.072C45.0418 56.04 44.5538 56.016 44.0898 56C43.6418 56 43.1858 56 42.7218 56C41.7618 56 40.7618 56.024 39.7218 56.072ZM50.9992 56.072C50.8392 56.072 50.7272 56.016 50.6632 55.904C50.5992 55.792 50.5672 55.672 50.5672 55.544C50.5832 55.272 50.6472 55.12 50.7592 55.088C50.8712 55.056 51.0072 55.04 51.1672 55.04C51.6792 55.04 52.0392 54.952 52.2472 54.776C52.4552 54.584 52.5832 54.352 52.6312 54.08C52.6952 53.792 52.7272 53.496 52.7272 53.192V43.664C52.7272 43.36 52.6952 43.072 52.6312 42.8C52.5832 42.512 52.4552 42.28 52.2472 42.104C52.0392 41.912 51.6792 41.816 51.1672 41.816C51.0072 41.816 50.8712 41.8 50.7592 41.768C50.6472 41.736 50.5832 41.584 50.5672 41.312C50.5672 41.184 50.5992 41.064 50.6632 40.952C50.7272 40.84 50.8392 40.784 50.9992 40.784C51.5112 40.8 51.9912 40.816 52.4392 40.832C52.8872 40.848 53.3512 40.856 53.8312 40.856C54.8072 40.856 55.8072 40.832 56.8312 40.784C56.9912 40.784 57.1032 40.84 57.1672 40.952C57.2312 41.064 57.2632 41.184 57.2632 41.312C57.2472 41.584 57.1832 41.736 57.0712 41.768C56.9752 41.8 56.8392 41.816 56.6632 41.816C56.1672 41.816 55.8072 41.912 55.5832 42.104C55.3752 42.28 55.2472 42.512 55.1992 42.8C55.1512 43.072 55.1192 43.36 55.1032 43.664V47.912H62.6392V43.664C62.6392 43.36 62.6072 43.072 62.5432 42.8C62.4952 42.512 62.3672 42.28 62.1592 42.104C61.9512 41.912 61.5912 41.816 61.0792 41.816C60.9192 41.816 60.7752 41.8 60.6472 41.768C60.5352 41.736 60.4712 41.584 60.4552 41.312C60.4552 41.184 60.4872 41.064 60.5512 40.952C60.6312 40.84 60.7432 40.784 60.8872 40.784C61.9272 40.832 62.9272 40.856 63.8872 40.856C64.3672 40.856 64.8312 40.848 65.2792 40.832C65.7432 40.816 66.2312 40.8 66.7432 40.784C66.8872 40.784 66.9912 40.84 67.0552 40.952C67.1352 41.064 67.1752 41.184 67.1752 41.312C67.1592 41.584 67.0952 41.736 66.9832 41.768C66.8712 41.8 66.7352 41.816 66.5752 41.816C66.0792 41.816 65.7192 41.912 65.4952 42.104C65.2712 42.28 65.1352 42.512 65.0872 42.8C65.0392 43.072 65.0072 43.36 64.9912 43.664V53.192C65.0072 53.496 65.0392 53.792 65.0872 54.08C65.1352 54.352 65.2712 54.584 65.4952 54.776C65.7192 54.952 66.0792 55.04 66.5752 55.04C66.7352 55.04 66.8712 55.056 66.9832 55.088C67.0952 55.12 67.1592 55.272 67.1752 55.544C67.1752 55.672 67.1352 55.792 67.0552 55.904C66.9912 56.016 66.8872 56.072 66.7432 56.072C66.2312 56.04 65.7432 56.016 65.2792 56C64.8152 56 64.3432 56 63.8632 56C62.9192 56 61.9272 56.024 60.8872 56.072C60.7432 56.072 60.6312 56.016 60.5512 55.904C60.4872 55.792 60.4552 55.672 60.4552 55.544C60.4712 55.272 60.5352 55.12 60.6472 55.088C60.7752 55.056 60.9192 55.04 61.0792 55.04C61.5912 55.04 61.9512 54.952 62.1592 54.776C62.3672 54.584 62.4952 54.352 62.5432 54.08C62.6072 53.792 62.6392 53.496 62.6392 53.192V48.944H55.1032V53.192C55.1192 53.496 55.1512 53.792 55.1992 54.08C55.2472 54.352 55.3752 54.584 55.5832 54.776C55.8072 54.952 56.1672 55.04 56.6632 55.04C56.8392 55.04 56.9752 55.056 57.0712 55.088C57.1832 55.12 57.2472 55.272 57.2632 55.544C57.2632 55.672 57.2312 55.792 57.1672 55.904C57.1032 56.016 56.9912 56.072 56.8312 56.072C55.8072 56.024 54.8152 56 53.8552 56C53.3752 56 52.9032 56 52.4392 56C51.9912 56.016 51.5112 56.04 50.9992 56.072ZM69.6314 56.072C69.4874 56.072 69.3834 56.016 69.3194 55.904C69.2554 55.792 69.2234 55.672 69.2234 55.544C69.2394 55.272 69.3034 55.12 69.4154 55.088C69.5274 55.056 69.6634 55.04 69.8234 55.04C70.3354 55.04 70.6954 54.952 70.9034 54.776C71.1114 54.584 71.2394 54.352 71.2874 54.08C71.3514 53.792 71.3834 53.496 71.3834 53.192V43.664C71.3834 43.36 71.3514 43.072 71.2874 42.8C71.2394 42.512 71.1114 42.28 70.9034 42.104C70.6954 41.912 70.3354 41.816 69.8234 41.816C69.6634 41.816 69.5274 41.8 69.4154 41.768C69.3034 41.736 69.2394 41.584 69.2234 41.312C69.2234 41.184 69.2554 41.064 69.3194 40.952C69.3834 40.84 69.4874 40.784 69.6314 40.784C70.1594 40.8 70.6474 40.816 71.0954 40.832C71.5434 40.848 72.0074 40.856 72.4874 40.856H80.0234C80.1994 40.856 80.3434 40.896 80.4554 40.976C80.5834 41.056 80.6474 41.208 80.6474 41.432L80.7194 44.792C80.7194 44.952 80.6394 45.072 80.4794 45.152C80.3354 45.232 80.1994 45.272 80.0714 45.272C79.8954 45.272 79.7354 45.24 79.5914 45.176C79.4474 45.096 79.3594 44.984 79.3274 44.84C79.2154 44.12 79.0794 43.544 78.9194 43.112C78.7754 42.664 78.5514 42.344 78.2474 42.152C77.9594 41.944 77.5354 41.832 76.9754 41.816H73.7594V47.912H78.1034C78.2314 47.928 78.3194 47.992 78.3674 48.104C78.4314 48.216 78.4634 48.336 78.4634 48.464C78.4634 48.576 78.4314 48.688 78.3674 48.8C78.3194 48.896 78.2314 48.944 78.1034 48.944H73.7594V53.48C73.7754 53.688 73.8074 53.92 73.8554 54.176C73.9034 54.416 74.0394 54.624 74.2634 54.8C74.5034 54.976 74.8954 55.056 75.4394 55.04H77.6474C78.2074 55.024 78.6314 54.936 78.9194 54.776C79.2234 54.6 79.4634 54.312 79.6394 53.912C79.8154 53.512 80.0074 52.96 80.2154 52.256C80.2794 52.096 80.3834 51.992 80.5274 51.944C80.6874 51.896 80.8554 51.888 81.0314 51.92C81.1594 51.936 81.2874 51.992 81.4154 52.088C81.5594 52.184 81.6234 52.312 81.6074 52.472L81.1274 55.496C81.0794 55.72 80.9994 55.864 80.8874 55.928C80.7914 55.976 80.6394 56 80.4314 56H72.5114C72.0314 56 71.5594 56 71.0954 56C70.6474 56.016 70.1594 56.04 69.6314 56.072ZM94.1452 56.48C92.4812 56.48 91.2012 56.192 90.3052 55.616C89.4092 55.024 88.9612 54.16 88.9612 53.024C88.9612 52.448 89.1532 51.976 89.5372 51.608C89.9372 51.224 90.4492 51.032 91.0732 51.032C91.4892 51.048 91.7772 51.152 91.9372 51.344C92.1132 51.536 92.2012 51.68 92.2012 51.776C92.2012 51.808 92.1292 51.864 91.9852 51.944C91.8412 52.008 91.6972 52.136 91.5532 52.328C91.4092 52.504 91.3372 52.784 91.3372 53.168C91.3372 53.888 91.5612 54.464 92.0092 54.896C92.4572 55.312 93.1692 55.52 94.1452 55.52C94.8332 55.52 95.4172 55.392 95.8972 55.136C96.3932 54.864 96.7692 54.52 97.0252 54.104C97.2812 53.672 97.4092 53.232 97.4092 52.784C97.4092 52.112 97.2172 51.56 96.8332 51.128C96.4492 50.696 95.9452 50.328 95.3212 50.024C94.7132 49.704 94.0652 49.4 93.3772 49.112C92.6892 48.824 92.0332 48.496 91.4092 48.128C90.8012 47.76 90.2972 47.304 89.8972 46.76C89.4972 46.2 89.2892 45.504 89.2732 44.672C89.2572 43.664 89.4732 42.848 89.9212 42.224C90.3692 41.584 90.9932 41.12 91.7932 40.832C92.5932 40.528 93.4812 40.376 94.4572 40.376C95.1772 40.376 95.8812 40.48 96.5692 40.688C97.2732 40.896 97.8492 41.224 98.2972 41.672C98.7612 42.104 98.9932 42.68 98.9932 43.4C98.9932 43.976 98.7932 44.456 98.3932 44.84C98.0092 45.208 97.5052 45.392 96.8812 45.392C96.4652 45.36 96.1692 45.256 95.9932 45.08C95.8332 44.888 95.7532 44.744 95.7532 44.648C95.7532 44.6 95.8492 44.544 96.0412 44.48C96.2332 44.4 96.4252 44.272 96.6172 44.096C96.8092 43.904 96.9052 43.624 96.9052 43.256C96.9052 42.648 96.6732 42.184 96.2092 41.864C95.7452 41.528 95.1692 41.36 94.4812 41.36C93.4412 41.36 92.6812 41.608 92.2012 42.104C91.7372 42.584 91.5052 43.128 91.5052 43.736C91.5052 44.328 91.6652 44.808 91.9852 45.176C92.3052 45.544 92.7852 45.904 93.4252 46.256C94.1452 46.64 94.8732 47 95.6092 47.336C96.3452 47.656 97.0252 48.016 97.6492 48.416C98.2892 48.816 98.8012 49.32 99.1852 49.928C99.5692 50.52 99.7612 51.288 99.7612 52.232C99.7612 53.048 99.5052 53.776 98.9932 54.416C98.4972 55.056 97.8252 55.56 96.9772 55.928C96.1292 56.296 95.1852 56.48 94.1452 56.48ZM101.975 56.072C101.831 56.072 101.727 56.016 101.663 55.904C101.599 55.792 101.567 55.672 101.567 55.544C101.583 55.272 101.647 55.12 101.759 55.088C101.871 55.056 102.007 55.04 102.167 55.04C102.679 55.04 103.039 54.952 103.247 54.776C103.455 54.584 103.583 54.352 103.631 54.08C103.695 53.792 103.727 53.496 103.727 53.192V43.664C103.727 43.36 103.695 43.072 103.631 42.8C103.583 42.512 103.455 42.28 103.247 42.104C103.039 41.912 102.679 41.816 102.167 41.816C102.007 41.816 101.871 41.8 101.759 41.768C101.647 41.736 101.583 41.584 101.567 41.312C101.567 41.184 101.599 41.064 101.663 40.952C101.727 40.84 101.831 40.784 101.975 40.784C102.503 40.8 102.991 40.816 103.439 40.832C103.887 40.848 104.351 40.856 104.831 40.856H112.367C112.543 40.856 112.687 40.896 112.799 40.976C112.927 41.056 112.991 41.208 112.991 41.432L113.063 44.792C113.063 44.952 112.983 45.072 112.823 45.152C112.679 45.232 112.543 45.272 112.415 45.272C112.239 45.272 112.079 45.24 111.935 45.176C111.791 45.096 111.703 44.984 111.671 44.84C111.559 44.12 111.423 43.544 111.263 43.112C111.119 42.664 110.895 42.344 110.591 42.152C110.303 41.944 109.879 41.832 109.319 41.816H106.103V47.912H110.447C110.575 47.928 110.663 47.992 110.711 48.104C110.775 48.216 110.807 48.336 110.807 48.464C110.807 48.576 110.775 48.688 110.711 48.8C110.663 48.896 110.575 48.944 110.447 48.944H106.103V53.48C106.119 53.688 106.151 53.92 106.199 54.176C106.247 54.416 106.383 54.624 106.607 54.8C106.847 54.976 107.239 55.056 107.783 55.04H109.991C110.551 55.024 110.975 54.936 111.263 54.776C111.567 54.6 111.807 54.312 111.983 53.912C112.159 53.512 112.351 52.96 112.559 52.256C112.623 52.096 112.727 51.992 112.871 51.944C113.031 51.896 113.199 51.888 113.375 51.92C113.503 51.936 113.631 51.992 113.759 52.088C113.903 52.184 113.967 52.312 113.951 52.472L113.471 55.496C113.423 55.72 113.343 55.864 113.231 55.928C113.135 55.976 112.983 56 112.775 56H104.855C104.375 56 103.903 56 103.439 56C102.991 56.016 102.503 56.04 101.975 56.072ZM123.377 56.48C122.033 56.48 120.801 56.16 119.681 55.52C118.561 54.88 117.657 53.968 116.969 52.784C116.297 51.6 115.961 50.184 115.961 48.536C115.961 46.904 116.281 45.48 116.921 44.264C117.561 43.032 118.465 42.08 119.633 41.408C120.817 40.72 122.209 40.376 123.809 40.376C124.385 40.376 124.977 40.432 125.585 40.544C126.209 40.656 126.785 40.848 127.313 41.12C127.841 41.376 128.265 41.72 128.585 42.152C128.921 42.584 129.089 43.12 129.089 43.76C129.105 44.448 128.897 45.056 128.465 45.584C128.033 46.096 127.425 46.352 126.641 46.352C126.161 46.352 125.817 46.24 125.609 46.016C125.417 45.776 125.329 45.6 125.345 45.488C125.345 45.44 125.441 45.36 125.633 45.248C125.841 45.12 126.041 44.936 126.233 44.696C126.441 44.44 126.545 44.104 126.545 43.688C126.545 42.968 126.305 42.4 125.825 41.984C125.345 41.552 124.665 41.336 123.785 41.336C122.825 41.336 121.961 41.608 121.193 42.152C120.441 42.696 119.849 43.496 119.417 44.552C118.985 45.592 118.769 46.872 118.769 48.392C118.769 49.672 118.993 50.84 119.441 51.896C119.905 52.936 120.545 53.768 121.361 54.392C122.193 55 123.153 55.304 124.241 55.304C125.105 55.304 125.841 55.128 126.449 54.776C127.073 54.408 127.633 53.824 128.129 53.024C128.273 52.752 128.529 52.728 128.897 52.952C129.041 53.048 129.153 53.168 129.233 53.312C129.313 53.44 129.297 53.576 129.185 53.72C128.577 54.488 128.001 55.072 127.457 55.472C126.913 55.856 126.321 56.12 125.681 56.264C125.041 56.408 124.273 56.48 123.377 56.48ZM131.46 56.072C131.3 56.072 131.188 56.016 131.124 55.904C131.06 55.792 131.028 55.672 131.028 55.544C131.044 55.272 131.108 55.12 131.22 55.088C131.332 55.056 131.468 55.04 131.628 55.04C132.14 55.04 132.5 54.952 132.708 54.776C132.916 54.584 133.044 54.352 133.092 54.08C133.156 53.792 133.188 53.496 133.188 53.192V43.688C133.188 43.384 133.156 43.088 133.092 42.8C133.044 42.512 132.916 42.28 132.708 42.104C132.5 41.912 132.14 41.816 131.628 41.816C131.468 41.816 131.332 41.8 131.22 41.768C131.108 41.736 131.044 41.584 131.028 41.312C131.028 41.184 131.06 41.064 131.124 40.952C131.188 40.84 131.3 40.784 131.46 40.784C131.972 40.8 132.452 40.816 132.9 40.832C133.364 40.848 133.836 40.856 134.316 40.856H138.444C139.74 40.872 140.788 41.072 141.588 41.456C142.404 41.84 142.996 42.328 143.364 42.92C143.732 43.512 143.916 44.128 143.916 44.768C143.916 45.616 143.572 46.416 142.884 47.168C142.212 47.92 141.26 48.456 140.028 48.776C140.636 49.736 141.252 50.704 141.876 51.68C142.5 52.64 143.22 53.544 144.036 54.392C144.26 54.568 144.476 54.712 144.684 54.824C144.908 54.936 145.172 55.008 145.476 55.04C145.604 55.056 145.732 55.08 145.86 55.112C145.988 55.128 146.06 55.272 146.076 55.544C146.076 55.672 146.044 55.792 145.98 55.904C145.916 56.016 145.804 56.072 145.644 56.072C145.308 56.056 145.036 56.04 144.828 56.024C144.636 56.024 144.444 56.016 144.252 56C144.06 56 143.804 56 143.484 56C142.828 55.872 142.268 55.64 141.804 55.304C141.356 54.968 140.916 54.504 140.484 53.912C140.036 53.304 139.62 52.688 139.236 52.064C138.852 51.44 138.476 50.832 138.108 50.24C137.9 49.904 137.684 49.664 137.46 49.52C137.252 49.36 136.852 49.28 136.26 49.28H135.564V53.192C135.58 53.496 135.612 53.792 135.66 54.08C135.708 54.352 135.836 54.584 136.044 54.776C136.268 54.952 136.628 55.04 137.124 55.04C137.284 55.04 137.42 55.056 137.532 55.088C137.644 55.12 137.708 55.272 137.724 55.544C137.724 55.672 137.692 55.792 137.628 55.904C137.564 56.016 137.452 56.072 137.292 56.072C136.268 56.024 135.268 56 134.292 56C133.812 56 133.348 56 132.9 56C132.452 56.016 131.972 56.04 131.46 56.072ZM135.564 48.344H137.676C138.492 48.344 139.132 48.232 139.596 48.008C140.076 47.784 140.436 47.496 140.676 47.144C140.916 46.792 141.068 46.424 141.132 46.04C141.212 45.656 141.252 45.304 141.252 44.984C141.252 44.456 141.132 43.944 140.892 43.448C140.668 42.952 140.26 42.544 139.668 42.224C139.092 41.904 138.284 41.744 137.244 41.744C136.556 41.744 136.1 41.88 135.876 42.152C135.668 42.408 135.564 42.936 135.564 43.736V48.344ZM147.538 56.072C147.394 56.072 147.29 56.016 147.226 55.904C147.162 55.792 147.13 55.672 147.13 55.544C147.146 55.272 147.21 55.12 147.322 55.088C147.434 55.056 147.57 55.04 147.73 55.04C148.242 55.04 148.602 54.952 148.81 54.776C149.018 54.584 149.146 54.352 149.194 54.08C149.258 53.792 149.29 53.496 149.29 53.192V43.664C149.29 43.36 149.258 43.072 149.194 42.8C149.146 42.512 149.018 42.28 148.81 42.104C148.602 41.912 148.242 41.816 147.73 41.816C147.57 41.816 147.434 41.8 147.322 41.768C147.21 41.736 147.146 41.584 147.13 41.312C147.13 41.184 147.162 41.064 147.226 40.952C147.29 40.84 147.394 40.784 147.538 40.784C148.066 40.8 148.554 40.816 149.002 40.832C149.45 40.848 149.914 40.856 150.394 40.856H157.93C158.106 40.856 158.25 40.896 158.362 40.976C158.49 41.056 158.554 41.208 158.554 41.432L158.626 44.792C158.626 44.952 158.546 45.072 158.386 45.152C158.242 45.232 158.106 45.272 157.978 45.272C157.802 45.272 157.642 45.24 157.498 45.176C157.354 45.096 157.266 44.984 157.234 44.84C157.122 44.12 156.986 43.544 156.826 43.112C156.682 42.664 156.458 42.344 156.154 42.152C155.866 41.944 155.442 41.832 154.882 41.816H151.666V47.912H156.01C156.138 47.928 156.226 47.992 156.274 48.104C156.338 48.216 156.37 48.336 156.37 48.464C156.37 48.576 156.338 48.688 156.274 48.8C156.226 48.896 156.138 48.944 156.01 48.944H151.666V53.48C151.682 53.688 151.714 53.92 151.762 54.176C151.81 54.416 151.946 54.624 152.17 54.8C152.41 54.976 152.802 55.056 153.346 55.04H155.554C156.114 55.024 156.538 54.936 156.826 54.776C157.13 54.6 157.37 54.312 157.546 53.912C157.722 53.512 157.914 52.96 158.122 52.256C158.186 52.096 158.29 51.992 158.434 51.944C158.594 51.896 158.762 51.888 158.938 51.92C159.066 51.936 159.194 51.992 159.322 52.088C159.466 52.184 159.53 52.312 159.514 52.472L159.034 55.496C158.986 55.72 158.906 55.864 158.794 55.928C158.698 55.976 158.546 56 158.338 56H150.418C149.938 56 149.466 56 149.002 56C148.554 56.016 148.066 56.04 147.538 56.072ZM164.644 56.072C164.484 56.072 164.372 56.016 164.308 55.904C164.244 55.792 164.212 55.672 164.212 55.544C164.228 55.272 164.292 55.12 164.404 55.088C164.516 55.056 164.652 55.04 164.812 55.04C165.324 55.04 165.684 54.952 165.892 54.776C166.1 54.584 166.228 54.352 166.276 54.08C166.34 53.792 166.372 53.496 166.372 53.192V41.744H164.716C164.172 41.76 163.748 41.88 163.444 42.104C163.14 42.312 162.916 42.648 162.772 43.112C162.628 43.56 162.5 44.144 162.388 44.864C162.372 45.008 162.268 45.12 162.076 45.2C161.9 45.264 161.724 45.296 161.548 45.296C161.436 45.296 161.308 45.256 161.164 45.176C161.036 45.096 160.972 44.976 160.972 44.816L161.044 41.432C161.044 41.208 161.108 41.056 161.236 40.976C161.364 40.896 161.516 40.856 161.692 40.856H173.428C173.604 40.856 173.748 40.896 173.86 40.976C173.988 41.056 174.052 41.208 174.052 41.432L174.148 44.816C174.148 44.976 174.076 45.096 173.932 45.176C173.804 45.256 173.676 45.296 173.548 45.296C173.388 45.296 173.22 45.264 173.044 45.2C172.868 45.12 172.764 45.008 172.732 44.864C172.62 44.144 172.484 43.56 172.324 43.112C172.18 42.648 171.956 42.312 171.652 42.104C171.364 41.88 170.94 41.76 170.38 41.744H168.748V53.192C168.764 53.496 168.796 53.792 168.844 54.08C168.892 54.352 169.02 54.584 169.228 54.776C169.452 54.952 169.812 55.04 170.308 55.04C170.468 55.04 170.604 55.056 170.716 55.088C170.828 55.12 170.892 55.272 170.908 55.544C170.908 55.672 170.876 55.792 170.812 55.904C170.748 56.016 170.636 56.072 170.476 56.072C169.964 56.04 169.476 56.016 169.012 56C168.564 56 168.108 56 167.644 56C166.684 56 165.684 56.024 164.644 56.072ZM188.698 56.48C187.354 56.48 186.114 56.2 184.978 55.64C183.858 55.064 182.954 54.192 182.266 53.024C181.594 51.84 181.258 50.344 181.258 48.536C181.258 46.904 181.61 45.48 182.314 44.264C183.034 43.032 184.026 42.08 185.29 41.408C186.554 40.72 188.002 40.376 189.634 40.376C190.194 40.376 190.77 40.44 191.362 40.568C191.954 40.696 192.506 40.896 193.018 41.168C193.53 41.424 193.938 41.768 194.242 42.2C194.562 42.632 194.722 43.152 194.722 43.76C194.722 44.416 194.522 45.016 194.122 45.56C193.722 46.088 193.162 46.352 192.442 46.352C192.138 46.352 191.818 46.28 191.482 46.136C191.162 45.976 190.994 45.76 190.978 45.488C190.978 45.44 191.074 45.352 191.266 45.224C191.474 45.096 191.674 44.904 191.866 44.648C192.074 44.376 192.178 44.024 192.178 43.592C192.178 42.904 191.914 42.36 191.386 41.96C190.858 41.544 190.178 41.336 189.346 41.336C188.37 41.336 187.482 41.608 186.682 42.152C185.882 42.696 185.242 43.496 184.762 44.552C184.298 45.592 184.066 46.872 184.066 48.392C184.066 49.832 184.29 51.072 184.738 52.112C185.202 53.136 185.842 53.928 186.658 54.488C187.49 55.032 188.45 55.304 189.538 55.304C190.066 55.304 190.522 55.272 190.906 55.208C191.29 55.144 191.698 55.048 192.13 54.92V52.472C192.13 52.024 192.114 51.672 192.082 51.416C192.05 51.144 191.938 50.944 191.746 50.816C191.554 50.688 191.218 50.624 190.738 50.624C190.578 50.624 190.426 50.608 190.282 50.576C190.154 50.544 190.082 50.392 190.066 50.12C190.066 49.992 190.106 49.872 190.186 49.76C190.282 49.648 190.41 49.592 190.57 49.592C191.082 49.608 191.514 49.624 191.866 49.64C192.218 49.656 192.666 49.664 193.21 49.664C193.754 49.664 194.194 49.656 194.53 49.64C194.882 49.624 195.306 49.608 195.802 49.592C195.962 49.592 196.074 49.648 196.138 49.76C196.218 49.872 196.258 49.992 196.258 50.12C196.242 50.392 196.17 50.544 196.042 50.576C195.914 50.608 195.762 50.624 195.586 50.624C195.138 50.624 194.818 50.696 194.626 50.84C194.45 50.968 194.338 51.168 194.29 51.44C194.258 51.712 194.242 52.056 194.242 52.472V55.304C193.618 55.592 193.034 55.824 192.49 56C191.962 56.176 191.394 56.296 190.786 56.36C190.194 56.44 189.498 56.48 188.698 56.48ZM196.843 56.072C196.683 56.072 196.571 56.016 196.507 55.904C196.443 55.792 196.411 55.672 196.411 55.544C196.427 55.272 196.491 55.12 196.603 55.088C196.715 55.056 196.851 55.04 197.011 55.04C197.443 55.04 197.771 54.952 197.995 54.776C198.219 54.6 198.395 54.368 198.523 54.08C198.667 53.792 198.803 53.496 198.931 53.192L203.131 43.256C203.291 42.872 203.323 42.584 203.227 42.392C203.131 42.184 202.971 42.04 202.747 41.96C202.523 41.864 202.275 41.792 202.003 41.744C201.763 41.696 201.603 41.656 201.523 41.624C201.443 41.576 201.403 41.432 201.403 41.192C201.403 40.92 201.499 40.776 201.691 40.76C201.883 40.728 202.107 40.712 202.363 40.712C203.019 40.712 203.579 40.776 204.043 40.904C204.507 41.032 204.907 41.28 205.243 41.648C205.579 42 205.891 42.536 206.179 43.256L210.211 53.192C210.323 53.464 210.443 53.744 210.571 54.032C210.699 54.32 210.867 54.56 211.075 54.752C211.299 54.928 211.579 55.024 211.915 55.04C212.091 55.04 212.227 55.056 212.323 55.088C212.435 55.12 212.499 55.272 212.515 55.544C212.515 55.672 212.475 55.792 212.395 55.904C212.331 56.016 212.227 56.072 212.083 56.072C211.571 56.04 211.123 56.016 210.739 56C210.355 56 209.923 56 209.443 56C208.499 56 207.507 56.024 206.467 56.072C206.307 56.072 206.195 56.016 206.131 55.904C206.067 55.792 206.035 55.672 206.035 55.544C206.051 55.272 206.115 55.12 206.227 55.088C206.339 55.056 206.475 55.04 206.635 55.04C207.419 55.04 207.843 54.896 207.907 54.608C207.987 54.32 207.915 53.848 207.691 53.192L206.875 51.2H200.947C200.707 51.808 200.531 52.248 200.419 52.52C200.323 52.792 200.259 52.968 200.227 53.048C200.211 53.128 200.195 53.176 200.179 53.192C200.003 53.736 199.907 54.144 199.891 54.416C199.891 54.672 200.019 54.84 200.275 54.92C200.547 55 200.995 55.04 201.619 55.04C201.795 55.04 201.931 55.056 202.027 55.088C202.139 55.12 202.203 55.272 202.219 55.544C202.219 55.672 202.179 55.792 202.099 55.904C202.035 56.016 201.931 56.072 201.787 56.072C201.275 56.04 200.827 56.016 200.443 56C200.075 56 199.651 56 199.171 56C198.851 56 198.579 56 198.355 56C198.147 56.016 197.931 56.024 197.707 56.024C197.483 56.04 197.195 56.056 196.843 56.072ZM201.403 50.168H206.443L204.019 44H203.947L201.403 50.168ZM212.882 56.072C212.722 56.072 212.61 56.016 212.546 55.904C212.482 55.792 212.45 55.672 212.45 55.544C212.466 55.272 212.53 55.12 212.642 55.088C212.754 55.056 212.89 55.04 213.05 55.04C213.562 55.04 213.922 54.952 214.13 54.776C214.338 54.584 214.466 54.352 214.514 54.08C214.578 53.792 214.61 53.496 214.61 53.192V43.688C214.61 43.384 214.578 43.088 214.514 42.8C214.466 42.512 214.338 42.28 214.13 42.104C213.922 41.912 213.562 41.816 213.05 41.816C212.89 41.816 212.754 41.8 212.642 41.768C212.53 41.736 212.466 41.584 212.45 41.312C212.45 41.184 212.482 41.064 212.546 40.952C212.61 40.84 212.722 40.784 212.882 40.784C213.394 40.8 213.874 40.816 214.322 40.832C214.786 40.848 215.258 40.856 215.738 40.856H219.866C221.162 40.872 222.21 41.072 223.01 41.456C223.826 41.84 224.418 42.328 224.786 42.92C225.154 43.512 225.338 44.128 225.338 44.768C225.338 45.616 224.994 46.416 224.306 47.168C223.634 47.92 222.682 48.456 221.45 48.776C222.058 49.736 222.674 50.704 223.298 51.68C223.922 52.64 224.642 53.544 225.458 54.392C225.682 54.568 225.898 54.712 226.106 54.824C226.33 54.936 226.594 55.008 226.898 55.04C227.026 55.056 227.154 55.08 227.282 55.112C227.41 55.128 227.482 55.272 227.498 55.544C227.498 55.672 227.466 55.792 227.402 55.904C227.338 56.016 227.226 56.072 227.066 56.072C226.73 56.056 226.458 56.04 226.25 56.024C226.058 56.024 225.866 56.016 225.674 56C225.482 56 225.226 56 224.906 56C224.25 55.872 223.69 55.64 223.226 55.304C222.778 54.968 222.338 54.504 221.906 53.912C221.458 53.304 221.042 52.688 220.658 52.064C220.274 51.44 219.898 50.832 219.53 50.24C219.322 49.904 219.106 49.664 218.882 49.52C218.674 49.36 218.274 49.28 217.682 49.28H216.986V53.192C217.002 53.496 217.034 53.792 217.082 54.08C217.13 54.352 217.258 54.584 217.466 54.776C217.69 54.952 218.05 55.04 218.546 55.04C218.706 55.04 218.842 55.056 218.954 55.088C219.066 55.12 219.13 55.272 219.146 55.544C219.146 55.672 219.114 55.792 219.05 55.904C218.986 56.016 218.874 56.072 218.714 56.072C217.69 56.024 216.69 56 215.714 56C215.234 56 214.77 56 214.322 56C213.874 56.016 213.394 56.04 212.882 56.072ZM216.986 48.344H219.098C219.914 48.344 220.554 48.232 221.018 48.008C221.498 47.784 221.858 47.496 222.098 47.144C222.338 46.792 222.49 46.424 222.554 46.04C222.634 45.656 222.674 45.304 222.674 44.984C222.674 44.456 222.554 43.944 222.314 43.448C222.09 42.952 221.682 42.544 221.09 42.224C220.514 41.904 219.706 41.744 218.666 41.744C217.978 41.744 217.522 41.88 217.298 42.152C217.09 42.408 216.986 42.936 216.986 43.736V48.344ZM228.96 56.072C228.816 56.072 228.712 56.016 228.648 55.904C228.584 55.792 228.552 55.672 228.552 55.544C228.568 55.272 228.632 55.12 228.744 55.088C228.856 55.056 228.992 55.04 229.152 55.04C229.664 55.04 230.024 54.952 230.232 54.776C230.44 54.584 230.568 54.352 230.616 54.08C230.68 53.792 230.712 53.496 230.712 53.192V43.664C230.712 43.36 230.68 43.072 230.616 42.8C230.568 42.512 230.44 42.28 230.232 42.104C230.024 41.912 229.664 41.816 229.152 41.816C228.992 41.816 228.856 41.8 228.744 41.768C228.632 41.736 228.568 41.584 228.552 41.312C228.552 41.184 228.584 41.064 228.648 40.952C228.712 40.84 228.816 40.784 228.96 40.784C229.488 40.8 229.976 40.816 230.424 40.832C230.872 40.848 231.336 40.856 231.816 40.856H235.56C237.096 40.856 238.488 41.16 239.736 41.768C240.984 42.376 241.976 43.248 242.712 44.384C243.448 45.52 243.816 46.896 243.816 48.512C243.816 49.792 243.568 50.904 243.072 51.848C242.576 52.792 241.912 53.576 241.08 54.2C240.248 54.808 239.312 55.264 238.272 55.568C237.248 55.856 236.2 56 235.128 56H231.816C231.336 56 230.872 56 230.424 56C229.976 56.016 229.488 56.04 228.96 56.072ZM235.488 55.112C236.784 55.112 237.832 54.84 238.632 54.296C239.432 53.736 240.008 52.96 240.36 51.968C240.728 50.976 240.912 49.824 240.912 48.512C240.912 47.2 240.68 46.032 240.216 45.008C239.752 43.984 239.072 43.184 238.176 42.608C237.296 42.016 236.224 41.72 234.96 41.72C234.704 41.72 234.368 41.728 233.952 41.744C233.536 41.744 233.248 41.744 233.088 41.744V53.48C233.088 54.12 233.28 54.552 233.664 54.776C234.064 55 234.672 55.112 235.488 55.112ZM246.069 56.072C245.925 56.072 245.821 56.016 245.757 55.904C245.693 55.792 245.661 55.672 245.661 55.544C245.677 55.272 245.741 55.12 245.853 55.088C245.965 55.056 246.101 55.04 246.261 55.04C246.773 55.04 247.133 54.952 247.341 54.776C247.549 54.584 247.677 54.352 247.725 54.08C247.789 53.792 247.821 53.496 247.821 53.192V43.664C247.821 43.36 247.789 43.072 247.725 42.8C247.677 42.512 247.549 42.28 247.341 42.104C247.133 41.912 246.773 41.816 246.261 41.816C246.101 41.816 245.965 41.8 245.853 41.768C245.741 41.736 245.677 41.584 245.661 41.312C245.661 41.184 245.693 41.064 245.757 40.952C245.821 40.84 245.925 40.784 246.069 40.784C246.597 40.8 247.085 40.816 247.533 40.832C247.981 40.848 248.445 40.856 248.925 40.856H256.461C256.637 40.856 256.781 40.896 256.893 40.976C257.021 41.056 257.085 41.208 257.085 41.432L257.157 44.792C257.157 44.952 257.077 45.072 256.917 45.152C256.773 45.232 256.637 45.272 256.509 45.272C256.333 45.272 256.173 45.24 256.029 45.176C255.885 45.096 255.797 44.984 255.765 44.84C255.653 44.12 255.517 43.544 255.357 43.112C255.213 42.664 254.989 42.344 254.685 42.152C254.397 41.944 253.973 41.832 253.413 41.816H250.197V47.912H254.541C254.669 47.928 254.757 47.992 254.805 48.104C254.869 48.216 254.901 48.336 254.901 48.464C254.901 48.576 254.869 48.688 254.805 48.8C254.757 48.896 254.669 48.944 254.541 48.944H250.197V53.48C250.213 53.688 250.245 53.92 250.293 54.176C250.341 54.416 250.477 54.624 250.701 54.8C250.941 54.976 251.333 55.056 251.877 55.04H254.085C254.645 55.024 255.069 54.936 255.357 54.776C255.661 54.6 255.901 54.312 256.077 53.912C256.253 53.512 256.445 52.96 256.653 52.256C256.717 52.096 256.821 51.992 256.965 51.944C257.125 51.896 257.293 51.888 257.469 51.92C257.597 51.936 257.725 51.992 257.853 52.088C257.997 52.184 258.061 52.312 258.045 52.472L257.565 55.496C257.517 55.72 257.437 55.864 257.325 55.928C257.229 55.976 257.077 56 256.869 56H248.949C248.469 56 247.997 56 247.533 56C247.085 56.016 246.597 56.04 246.069 56.072ZM260.367 56.072C260.207 56.072 260.095 56.016 260.031 55.904C259.967 55.792 259.935 55.672 259.935 55.544C259.951 55.272 260.015 55.12 260.127 55.088C260.239 55.056 260.375 55.04 260.535 55.04C261.047 55.04 261.399 54.952 261.591 54.776C261.799 54.584 261.927 54.352 261.975 54.08C262.023 53.792 262.047 53.496 262.047 53.192L262.095 43.664C262.095 42.912 261.967 42.432 261.711 42.224C261.455 42.016 261.047 41.856 260.487 41.744C260.247 41.696 260.087 41.656 260.007 41.624C259.927 41.576 259.887 41.432 259.887 41.192C259.887 40.92 259.983 40.776 260.175 40.76C260.367 40.728 260.591 40.712 260.847 40.712C261.743 40.712 262.463 40.784 263.007 40.928C263.567 41.072 264.055 41.328 264.471 41.696C264.903 42.064 265.367 42.584 265.863 43.256L272.439 51.896H272.511L272.463 43.664C272.463 43.36 272.439 43.072 272.391 42.8C272.343 42.512 272.215 42.28 272.007 42.104C271.815 41.912 271.463 41.816 270.951 41.816C270.791 41.816 270.655 41.8 270.543 41.768C270.431 41.736 270.359 41.584 270.327 41.312C270.327 41.184 270.359 41.064 270.423 40.952C270.503 40.84 270.615 40.784 270.759 40.784C271.111 40.8 271.391 40.816 271.599 40.832C271.823 40.832 272.039 40.84 272.247 40.856C272.471 40.856 272.743 40.856 273.063 40.856C273.383 40.856 273.647 40.856 273.855 40.856C274.063 40.84 274.271 40.832 274.479 40.832C274.703 40.816 274.983 40.8 275.319 40.784C275.479 40.784 275.591 40.84 275.655 40.952C275.719 41.064 275.751 41.184 275.751 41.312C275.735 41.584 275.671 41.736 275.559 41.768C275.463 41.8 275.327 41.816 275.151 41.816C274.655 41.816 274.303 41.912 274.095 42.104C273.887 42.28 273.759 42.512 273.711 42.8C273.679 43.072 273.655 43.36 273.639 43.664L273.591 55.76C273.575 55.888 273.495 55.968 273.351 56C273.223 56.048 273.103 56.072 272.991 56.072C272.687 56.072 272.455 55.968 272.295 55.76L263.247 43.664H263.175L263.223 53.192C263.239 53.496 263.263 53.792 263.295 54.08C263.343 54.352 263.471 54.584 263.679 54.776C263.887 54.952 264.239 55.04 264.735 55.04C264.911 55.04 265.055 55.056 265.167 55.088C265.279 55.12 265.343 55.272 265.359 55.544C265.359 55.672 265.319 55.792 265.239 55.904C265.175 56.016 265.071 56.072 264.927 56.072C264.591 56.056 264.303 56.04 264.063 56.024C263.839 56.024 263.615 56.016 263.391 56C263.183 56 262.919 56 262.599 56C262.279 56 262.015 56 261.807 56C261.615 56.016 261.415 56.024 261.207 56.024C260.999 56.04 260.719 56.056 260.367 56.072Z" fill="black"/>
<path d="M181.688 83.2188V84.2891C181.286 84.1172 180.943 84.0312 180.656 84.0312C180.443 84.0312 180.266 84.0755 180.125 84.1641C179.984 84.2474 179.896 84.3464 179.859 84.4609C179.823 84.5703 179.805 84.8672 179.805 85.3516V86.5H181.578V87.4375H179.797V95H178.703V87.4375H177.586V86.5H178.703V85.1719C178.703 84.5625 178.758 84.1276 178.867 83.8672C178.982 83.6068 179.172 83.3984 179.438 83.2422C179.708 83.0807 180.034 83 180.414 83C180.768 83 181.193 83.0729 181.688 83.2188ZM183.055 83.2188H184.148V95H183.055V83.2188ZM190.445 86.2812C191.753 86.2812 192.836 86.7552 193.695 87.7031C194.477 88.5677 194.867 89.5911 194.867 90.7734C194.867 91.9609 194.453 93 193.625 93.8906C192.802 94.776 191.742 95.2188 190.445 95.2188C189.143 95.2188 188.078 94.776 187.25 93.8906C186.427 93 186.016 91.9609 186.016 90.7734C186.016 89.5964 186.406 88.5755 187.188 87.7109C188.047 86.7578 189.133 86.2812 190.445 86.2812ZM190.445 87.3516C189.539 87.3516 188.76 87.6875 188.109 88.3594C187.458 89.0312 187.133 89.8438 187.133 90.7969C187.133 91.4115 187.281 91.9844 187.578 92.5156C187.875 93.0469 188.276 93.4583 188.781 93.75C189.286 94.0365 189.841 94.1797 190.445 94.1797C191.049 94.1797 191.604 94.0365 192.109 93.75C192.615 93.4583 193.016 93.0469 193.312 92.5156C193.609 91.9844 193.758 91.4115 193.758 90.7969C193.758 89.8438 193.43 89.0312 192.773 88.3594C192.122 87.6875 191.346 87.3516 190.445 87.3516ZM195.758 86.5H196.883L199.484 92.6719L202.211 86.5H202.406L205.125 92.6719L207.773 86.5H208.914L205.227 95H205.016L202.312 88.9141L199.586 95H199.383L195.758 86.5ZM217.359 92.1797L218.281 92.6641C217.979 93.2578 217.63 93.737 217.234 94.1016C216.839 94.4661 216.393 94.7448 215.898 94.9375C215.404 95.125 214.844 95.2188 214.219 95.2188C212.833 95.2188 211.75 94.7656 210.969 93.8594C210.188 92.9479 209.797 91.9193 209.797 90.7734C209.797 89.6953 210.128 88.7344 210.789 87.8906C211.628 86.8177 212.75 86.2812 214.156 86.2812C215.604 86.2812 216.76 86.8307 217.625 87.9297C218.24 88.7057 218.552 89.6745 218.562 90.8359H210.922C210.943 91.8255 211.258 92.638 211.867 93.2734C212.477 93.9036 213.229 94.2188 214.125 94.2188C214.557 94.2188 214.977 94.1432 215.383 93.9922C215.794 93.8411 216.143 93.6406 216.43 93.3906C216.716 93.1406 217.026 92.737 217.359 92.1797ZM217.359 89.8906C217.214 89.3073 217 88.8411 216.719 88.4922C216.443 88.1432 216.076 87.862 215.617 87.6484C215.159 87.4349 214.677 87.3281 214.172 87.3281C213.339 87.3281 212.622 87.5964 212.023 88.1328C211.586 88.5234 211.255 89.1094 211.031 89.8906H217.359ZM220.195 86.5H221.312V87.7422C221.646 87.2526 221.997 86.888 222.367 86.6484C222.737 86.4036 223.122 86.2812 223.523 86.2812C223.826 86.2812 224.148 86.3776 224.492 86.5703L223.922 87.4922C223.693 87.3932 223.5 87.3438 223.344 87.3438C222.979 87.3438 222.628 87.4948 222.289 87.7969C221.951 88.0938 221.693 88.5573 221.516 89.1875C221.38 89.6719 221.312 90.651 221.312 92.125V95H220.195V86.5ZM234.133 87.4297L233.43 88.1562C232.846 87.5885 232.276 87.3047 231.719 87.3047C231.365 87.3047 231.06 87.4219 230.805 87.6562C230.555 87.8906 230.43 88.1641 230.43 88.4766C230.43 88.7526 230.534 89.0156 230.742 89.2656C230.951 89.5208 231.388 89.8203 232.055 90.1641C232.867 90.5859 233.419 90.9922 233.711 91.3828C233.997 91.7786 234.141 92.224 234.141 92.7188C234.141 93.4167 233.896 94.0078 233.406 94.4922C232.917 94.9766 232.305 95.2188 231.57 95.2188C231.081 95.2188 230.612 95.112 230.164 94.8984C229.721 94.6849 229.354 94.3906 229.062 94.0156L229.75 93.2344C230.307 93.8646 230.898 94.1797 231.523 94.1797C231.961 94.1797 232.333 94.0391 232.641 93.7578C232.948 93.4766 233.102 93.1458 233.102 92.7656C233.102 92.4531 233 92.1745 232.797 91.9297C232.594 91.6901 232.135 91.388 231.422 91.0234C230.656 90.6276 230.135 90.237 229.859 89.8516C229.583 89.4661 229.445 89.026 229.445 88.5312C229.445 87.8854 229.664 87.349 230.102 86.9219C230.544 86.4948 231.102 86.2812 231.773 86.2812C232.555 86.2812 233.341 86.6641 234.133 87.4297ZM236.078 83.2188H237.172V88.0234C237.615 87.4401 238.102 87.0052 238.633 86.7188C239.164 86.4271 239.74 86.2812 240.359 86.2812C240.995 86.2812 241.557 86.4427 242.047 86.7656C242.542 87.0885 242.906 87.5234 243.141 88.0703C243.375 88.612 243.492 89.4635 243.492 90.625V95H242.398V90.9453C242.398 89.9661 242.359 89.3125 242.281 88.9844C242.146 88.4219 241.898 88 241.539 87.7188C241.185 87.4323 240.719 87.2891 240.141 87.2891C239.479 87.2891 238.885 87.5078 238.359 87.9453C237.839 88.3828 237.495 88.9245 237.328 89.5703C237.224 89.987 237.172 90.7578 237.172 91.8828V95H236.078V83.2188ZM249.867 86.2812C251.174 86.2812 252.258 86.7552 253.117 87.7031C253.898 88.5677 254.289 89.5911 254.289 90.7734C254.289 91.9609 253.875 93 253.047 93.8906C252.224 94.776 251.164 95.2188 249.867 95.2188C248.565 95.2188 247.5 94.776 246.672 93.8906C245.849 93 245.438 91.9609 245.438 90.7734C245.438 89.5964 245.828 88.5755 246.609 87.7109C247.469 86.7578 248.555 86.2812 249.867 86.2812ZM249.867 87.3516C248.961 87.3516 248.182 87.6875 247.531 88.3594C246.88 89.0312 246.555 89.8438 246.555 90.7969C246.555 91.4115 246.703 91.9844 247 92.5156C247.297 93.0469 247.698 93.4583 248.203 93.75C248.708 94.0365 249.263 94.1797 249.867 94.1797C250.471 94.1797 251.026 94.0365 251.531 93.75C252.036 93.4583 252.438 93.0469 252.734 92.5156C253.031 91.9844 253.18 91.4115 253.18 90.7969C253.18 89.8438 252.852 89.0312 252.195 88.3594C251.544 87.6875 250.768 87.3516 249.867 87.3516ZM256.344 86.5H257.43V88.0625C257.862 87.4688 258.359 87.0234 258.922 86.7266C259.484 86.4297 260.112 86.2812 260.805 86.2812C262.013 86.2812 263.047 86.7161 263.906 87.5859C264.766 88.4557 265.195 89.5026 265.195 90.7266C265.195 91.9766 264.768 93.0391 263.914 93.9141C263.065 94.7839 262.039 95.2188 260.836 95.2188C260.159 95.2188 259.536 95.0781 258.969 94.7969C258.401 94.5156 257.888 94.0964 257.43 93.5391V98.1094H256.344V86.5ZM260.719 87.3359C259.771 87.3359 258.971 87.6667 258.32 88.3281C257.674 88.9896 257.352 89.8125 257.352 90.7969C257.352 91.4427 257.495 92.0234 257.781 92.5391C258.073 93.0547 258.487 93.4635 259.023 93.7656C259.565 94.0677 260.135 94.2188 260.734 94.2188C261.323 94.2188 261.875 94.0677 262.391 93.7656C262.911 93.4583 263.326 93.0312 263.633 92.4844C263.94 91.9375 264.094 91.3646 264.094 90.7656C264.094 90.1615 263.94 89.5885 263.633 89.0469C263.331 88.5052 262.922 88.0859 262.406 87.7891C261.891 87.487 261.328 87.3359 260.719 87.3359Z" fill="black"/>
</svg>
