<svg width="326" height="225" viewBox="0 0 326 225" fill="none" xmlns="http://www.w3.org/2000/svg">
<line x1="164" y1="4" x2="164" y2="177" stroke="#E26575" stroke-width="2"/>
<path d="M195.754 93C188.821 93 183.487 91.8 179.754 89.4C176.021 86.9333 174.154 83.3333 174.154 78.6C174.154 76.2 174.954 74.2333 176.554 72.7C178.221 71.1 180.354 70.3 182.954 70.3C184.687 70.3667 185.887 70.8 186.554 71.6C187.287 72.4 187.654 73 187.654 73.4C187.654 73.5333 187.354 73.7667 186.754 74.1C186.154 74.3667 185.554 74.9 184.954 75.7C184.354 76.4333 184.054 77.6 184.054 79.2C184.054 82.2 184.987 84.6 186.854 86.4C188.721 88.1333 191.687 89 195.754 89C198.621 89 201.054 88.4667 203.054 87.4C205.121 86.2667 206.687 84.8333 207.754 83.1C208.821 81.3 209.354 79.4667 209.354 77.6C209.354 74.8 208.554 72.5 206.954 70.7C205.354 68.9 203.254 67.3667 200.654 66.1C198.121 64.7667 195.421 63.5 192.554 62.3C189.687 61.1 186.954 59.7333 184.354 58.2C181.821 56.6667 179.721 54.7667 178.054 52.5C176.387 50.1667 175.521 47.2667 175.454 43.8C175.387 39.6 176.287 36.2 178.154 33.6C180.021 30.9333 182.621 29 185.954 27.8C189.287 26.5333 192.987 25.9 197.054 25.9C200.054 25.9 202.987 26.3333 205.854 27.2C208.787 28.0667 211.187 29.4333 213.054 31.3C214.987 33.1 215.954 35.5 215.954 38.5C215.954 40.9 215.121 42.9 213.454 44.5C211.854 46.0333 209.754 46.8 207.154 46.8C205.421 46.6667 204.187 46.2333 203.454 45.5C202.787 44.7 202.454 44.1 202.454 43.7C202.454 43.5 202.854 43.2667 203.654 43C204.454 42.6667 205.254 42.1333 206.054 41.4C206.854 40.6 207.254 39.4333 207.254 37.9C207.254 35.3667 206.287 33.4333 204.354 32.1C202.421 30.7 200.021 30 197.154 30C192.821 30 189.654 31.0333 187.654 33.1C185.721 35.1 184.754 37.3667 184.754 39.9C184.754 42.3667 185.421 44.3667 186.754 45.9C188.087 47.4333 190.087 48.9333 192.754 50.4C195.754 52 198.787 53.5 201.854 54.9C204.921 56.2333 207.754 57.7333 210.354 59.4C213.021 61.0667 215.154 63.1667 216.754 65.7C218.354 68.1667 219.154 71.3667 219.154 75.3C219.154 78.7 218.087 81.7333 215.954 84.4C213.887 87.0667 211.087 89.1667 207.554 90.7C204.021 92.2333 200.087 93 195.754 93Z" fill="#E26575"/>
<path d="M129.781 165C124.181 165 119.014 163.833 114.281 161.5C109.614 159.1 105.848 155.467 102.981 150.6C100.181 145.667 98.7809 139.433 98.7809 131.9C98.7809 125.1 100.248 119.167 103.181 114.1C106.181 108.967 110.314 105 115.581 102.2C120.848 99.3333 126.881 97.9 133.681 97.9C136.014 97.9 138.414 98.1667 140.881 98.7C143.348 99.2333 145.648 100.067 147.781 101.2C149.914 102.267 151.614 103.7 152.881 105.5C154.214 107.3 154.881 109.467 154.881 112C154.881 114.733 154.048 117.233 152.381 119.5C150.714 121.7 148.381 122.8 145.381 122.8C144.114 122.8 142.781 122.5 141.381 121.9C140.048 121.233 139.348 120.333 139.281 119.2C139.281 119 139.681 118.633 140.481 118.1C141.348 117.567 142.181 116.767 142.981 115.7C143.848 114.567 144.281 113.1 144.281 111.3C144.281 108.433 143.181 106.167 140.981 104.5C138.781 102.767 135.948 101.9 132.481 101.9C128.414 101.9 124.714 103.033 121.381 105.3C118.048 107.567 115.381 110.9 113.381 115.3C111.448 119.633 110.481 124.967 110.481 131.3C110.481 137.3 111.414 142.467 113.281 146.8C115.214 151.067 117.881 154.367 121.281 156.7C124.748 158.967 128.748 160.1 133.281 160.1C135.481 160.1 137.381 159.967 138.981 159.7C140.581 159.433 142.281 159.033 144.081 158.5V148.3C144.081 146.433 144.014 144.967 143.881 143.9C143.748 142.767 143.281 141.933 142.481 141.4C141.681 140.867 140.281 140.6 138.281 140.6C137.614 140.6 136.981 140.533 136.381 140.4C135.848 140.267 135.548 139.633 135.481 138.5C135.481 137.967 135.648 137.467 135.981 137C136.381 136.533 136.914 136.3 137.581 136.3C139.714 136.367 141.514 136.433 142.981 136.5C144.448 136.567 146.314 136.6 148.581 136.6C150.848 136.6 152.681 136.567 154.081 136.5C155.548 136.433 157.314 136.367 159.381 136.3C160.048 136.3 160.514 136.533 160.781 137C161.114 137.467 161.281 137.967 161.281 138.5C161.214 139.633 160.914 140.267 160.381 140.4C159.848 140.533 159.214 140.6 158.481 140.6C156.614 140.6 155.281 140.9 154.481 141.5C153.748 142.033 153.281 142.867 153.081 144C152.948 145.133 152.881 146.567 152.881 148.3V160.1C150.281 161.3 147.848 162.267 145.581 163C143.381 163.733 141.014 164.233 138.481 164.5C136.014 164.833 133.114 165 129.781 165Z" fill="#E26575"/>
<path d="M66.1015 200.06C65.9682 200.06 65.8748 200.013 65.8215 199.92C65.7682 199.827 65.7415 199.727 65.7415 199.62C65.7548 199.393 65.8082 199.267 65.9015 199.24C65.9948 199.213 66.1082 199.2 66.2415 199.2C66.6682 199.2 66.9682 199.127 67.1415 198.98C67.3148 198.82 67.4215 198.627 67.4615 198.4C67.5148 198.16 67.5415 197.913 67.5415 197.66V188.12H66.1615C65.7082 188.133 65.3548 188.233 65.1015 188.42C64.8482 188.593 64.6615 188.873 64.5415 189.26C64.4215 189.633 64.3148 190.12 64.2215 190.72C64.2082 190.84 64.1215 190.933 63.9615 191C63.8148 191.053 63.6682 191.08 63.5215 191.08C63.4282 191.08 63.3215 191.047 63.2015 190.98C63.0948 190.913 63.0415 190.813 63.0415 190.68L63.1015 187.86C63.1015 187.673 63.1548 187.547 63.2615 187.48C63.3682 187.413 63.4948 187.38 63.6415 187.38H73.4215C73.5682 187.38 73.6882 187.413 73.7815 187.48C73.8882 187.547 73.9415 187.673 73.9415 187.86L74.0215 190.68C74.0215 190.813 73.9615 190.913 73.8415 190.98C73.7348 191.047 73.6282 191.08 73.5215 191.08C73.3882 191.08 73.2482 191.053 73.1015 191C72.9548 190.933 72.8682 190.84 72.8415 190.72C72.7482 190.12 72.6348 189.633 72.5015 189.26C72.3815 188.873 72.1948 188.593 71.9415 188.42C71.7015 188.233 71.3482 188.133 70.8815 188.12H69.5215V197.66C69.5348 197.913 69.5615 198.16 69.6015 198.4C69.6415 198.627 69.7482 198.82 69.9215 198.98C70.1082 199.127 70.4082 199.2 70.8215 199.2C70.9548 199.2 71.0682 199.213 71.1615 199.24C71.2548 199.267 71.3082 199.393 71.3215 199.62C71.3215 199.727 71.2948 199.827 71.2415 199.92C71.1882 200.013 71.0948 200.06 70.9615 200.06C70.5348 200.033 70.1282 200.013 69.7415 200C69.3682 200 68.9882 200 68.6015 200C67.8015 200 66.9682 200.02 66.1015 200.06ZM75.4993 200.06C75.366 200.06 75.2726 200.013 75.2193 199.92C75.166 199.827 75.1393 199.727 75.1393 199.62C75.1526 199.393 75.206 199.267 75.2993 199.24C75.3926 199.213 75.506 199.2 75.6393 199.2C76.066 199.2 76.366 199.127 76.5393 198.98C76.7126 198.82 76.8193 198.627 76.8593 198.4C76.9126 198.16 76.9393 197.913 76.9393 197.66V189.72C76.9393 189.467 76.9126 189.227 76.8593 189C76.8193 188.76 76.7126 188.567 76.5393 188.42C76.366 188.26 76.066 188.18 75.6393 188.18C75.506 188.18 75.3926 188.167 75.2993 188.14C75.206 188.113 75.1526 187.987 75.1393 187.76C75.1393 187.653 75.166 187.553 75.2193 187.46C75.2726 187.367 75.366 187.32 75.4993 187.32C75.926 187.333 76.326 187.347 76.6993 187.36C77.0726 187.373 77.4593 187.38 77.8593 187.38C78.6726 187.38 79.506 187.36 80.3593 187.32C80.4926 187.32 80.586 187.367 80.6393 187.46C80.6926 187.553 80.7193 187.653 80.7193 187.76C80.706 187.987 80.6526 188.113 80.5593 188.14C80.4793 188.167 80.366 188.18 80.2193 188.18C79.806 188.18 79.506 188.26 79.3193 188.42C79.146 188.567 79.0393 188.76 78.9993 189C78.9593 189.227 78.9326 189.467 78.9193 189.72V193.26H85.1993V189.72C85.1993 189.467 85.1726 189.227 85.1193 189C85.0793 188.76 84.9726 188.567 84.7993 188.42C84.626 188.26 84.326 188.18 83.8993 188.18C83.766 188.18 83.646 188.167 83.5393 188.14C83.446 188.113 83.3926 187.987 83.3793 187.76C83.3793 187.653 83.406 187.553 83.4593 187.46C83.526 187.367 83.6193 187.32 83.7393 187.32C84.606 187.36 85.4393 187.38 86.2393 187.38C86.6393 187.38 87.026 187.373 87.3993 187.36C87.786 187.347 88.1926 187.333 88.6193 187.32C88.7393 187.32 88.826 187.367 88.8793 187.46C88.946 187.553 88.9793 187.653 88.9793 187.76C88.966 187.987 88.9126 188.113 88.8193 188.14C88.726 188.167 88.6126 188.18 88.4793 188.18C88.066 188.18 87.766 188.26 87.5793 188.42C87.3926 188.567 87.2793 188.76 87.2393 189C87.1993 189.227 87.1726 189.467 87.1593 189.72V197.66C87.1726 197.913 87.1993 198.16 87.2393 198.4C87.2793 198.627 87.3926 198.82 87.5793 198.98C87.766 199.127 88.066 199.2 88.4793 199.2C88.6126 199.2 88.726 199.213 88.8193 199.24C88.9126 199.267 88.966 199.393 88.9793 199.62C88.9793 199.727 88.946 199.827 88.8793 199.92C88.826 200.013 88.7393 200.06 88.6193 200.06C88.1926 200.033 87.786 200.013 87.3993 200C87.0126 200 86.6193 200 86.2193 200C85.4326 200 84.606 200.02 83.7393 200.06C83.6193 200.06 83.526 200.013 83.4593 199.92C83.406 199.827 83.3793 199.727 83.3793 199.62C83.3926 199.393 83.446 199.267 83.5393 199.24C83.646 199.213 83.766 199.2 83.8993 199.2C84.326 199.2 84.626 199.127 84.7993 198.98C84.9726 198.82 85.0793 198.627 85.1193 198.4C85.1726 198.16 85.1993 197.913 85.1993 197.66V194.12H78.9193V197.66C78.9326 197.913 78.9593 198.16 78.9993 198.4C79.0393 198.627 79.146 198.82 79.3193 198.98C79.506 199.127 79.806 199.2 80.2193 199.2C80.366 199.2 80.4793 199.213 80.5593 199.24C80.6526 199.267 80.706 199.393 80.7193 199.62C80.7193 199.727 80.6926 199.827 80.6393 199.92C80.586 200.013 80.4926 200.06 80.3593 200.06C79.506 200.02 78.6793 200 77.8793 200C77.4793 200 77.086 200 76.6993 200C76.326 200.013 75.926 200.033 75.4993 200.06ZM91.0262 200.06C90.9062 200.06 90.8195 200.013 90.7662 199.92C90.7128 199.827 90.6862 199.727 90.6862 199.62C90.6995 199.393 90.7528 199.267 90.8462 199.24C90.9395 199.213 91.0528 199.2 91.1862 199.2C91.6128 199.2 91.9128 199.127 92.0862 198.98C92.2595 198.82 92.3662 198.627 92.4062 198.4C92.4595 198.16 92.4862 197.913 92.4862 197.66V189.72C92.4862 189.467 92.4595 189.227 92.4062 189C92.3662 188.76 92.2595 188.567 92.0862 188.42C91.9128 188.26 91.6128 188.18 91.1862 188.18C91.0528 188.18 90.9395 188.167 90.8462 188.14C90.7528 188.113 90.6995 187.987 90.6862 187.76C90.6862 187.653 90.7128 187.553 90.7662 187.46C90.8195 187.367 90.9062 187.32 91.0262 187.32C91.4662 187.333 91.8728 187.347 92.2462 187.36C92.6195 187.373 93.0062 187.38 93.4062 187.38H99.6862C99.8328 187.38 99.9528 187.413 100.046 187.48C100.153 187.547 100.206 187.673 100.206 187.86L100.266 190.66C100.266 190.793 100.2 190.893 100.066 190.96C99.9462 191.027 99.8328 191.06 99.7262 191.06C99.5795 191.06 99.4462 191.033 99.3262 190.98C99.2062 190.913 99.1328 190.82 99.1062 190.7C99.0128 190.1 98.8995 189.62 98.7662 189.26C98.6462 188.887 98.4595 188.62 98.2062 188.46C97.9662 188.287 97.6128 188.193 97.1462 188.18H94.4662V193.26H98.0862C98.1928 193.273 98.2662 193.327 98.3062 193.42C98.3595 193.513 98.3862 193.613 98.3862 193.72C98.3862 193.813 98.3595 193.907 98.3062 194C98.2662 194.08 98.1928 194.12 98.0862 194.12H94.4662V197.9C94.4795 198.073 94.5062 198.267 94.5462 198.48C94.5862 198.68 94.6995 198.853 94.8862 199C95.0862 199.147 95.4128 199.213 95.8662 199.2H97.7062C98.1728 199.187 98.5262 199.113 98.7662 198.98C99.0195 198.833 99.2195 198.593 99.3662 198.26C99.5128 197.927 99.6728 197.467 99.8462 196.88C99.8995 196.747 99.9862 196.66 100.106 196.62C100.24 196.58 100.38 196.573 100.526 196.6C100.633 196.613 100.74 196.66 100.846 196.74C100.966 196.82 101.02 196.927 101.006 197.06L100.606 199.58C100.566 199.767 100.5 199.887 100.406 199.94C100.326 199.98 100.2 200 100.026 200H93.4262C93.0262 200 92.6328 200 92.2462 200C91.8728 200.013 91.4662 200.033 91.0262 200.06ZM111.454 200.4C110.068 200.4 109.001 200.16 108.254 199.68C107.508 199.187 107.134 198.467 107.134 197.52C107.134 197.04 107.294 196.647 107.614 196.34C107.948 196.02 108.374 195.86 108.894 195.86C109.241 195.873 109.481 195.96 109.614 196.12C109.761 196.28 109.834 196.4 109.834 196.48C109.834 196.507 109.774 196.553 109.654 196.62C109.534 196.673 109.414 196.78 109.294 196.94C109.174 197.087 109.114 197.32 109.114 197.64C109.114 198.24 109.301 198.72 109.674 199.08C110.048 199.427 110.641 199.6 111.454 199.6C112.028 199.6 112.514 199.493 112.914 199.28C113.328 199.053 113.641 198.767 113.854 198.42C114.068 198.06 114.174 197.693 114.174 197.32C114.174 196.76 114.014 196.3 113.694 195.94C113.374 195.58 112.954 195.273 112.434 195.02C111.928 194.753 111.388 194.5 110.814 194.26C110.241 194.02 109.694 193.747 109.174 193.44C108.668 193.133 108.248 192.753 107.914 192.3C107.581 191.833 107.408 191.253 107.394 190.56C107.381 189.72 107.561 189.04 107.934 188.52C108.308 187.987 108.828 187.6 109.494 187.36C110.161 187.107 110.901 186.98 111.714 186.98C112.314 186.98 112.901 187.067 113.474 187.24C114.061 187.413 114.541 187.687 114.914 188.06C115.301 188.42 115.494 188.9 115.494 189.5C115.494 189.98 115.328 190.38 114.994 190.7C114.674 191.007 114.254 191.16 113.734 191.16C113.388 191.133 113.141 191.047 112.994 190.9C112.861 190.74 112.794 190.62 112.794 190.54C112.794 190.5 112.874 190.453 113.034 190.4C113.194 190.333 113.354 190.227 113.514 190.08C113.674 189.92 113.754 189.687 113.754 189.38C113.754 188.873 113.561 188.487 113.174 188.22C112.788 187.94 112.308 187.8 111.734 187.8C110.868 187.8 110.234 188.007 109.834 188.42C109.448 188.82 109.254 189.273 109.254 189.78C109.254 190.273 109.388 190.673 109.654 190.98C109.921 191.287 110.321 191.587 110.854 191.88C111.454 192.2 112.061 192.5 112.674 192.78C113.288 193.047 113.854 193.347 114.374 193.68C114.908 194.013 115.334 194.433 115.654 194.94C115.974 195.433 116.134 196.073 116.134 196.86C116.134 197.54 115.921 198.147 115.494 198.68C115.081 199.213 114.521 199.633 113.814 199.94C113.108 200.247 112.321 200.4 111.454 200.4ZM117.979 200.06C117.859 200.06 117.773 200.013 117.719 199.92C117.666 199.827 117.639 199.727 117.639 199.62C117.653 199.393 117.706 199.267 117.799 199.24C117.893 199.213 118.006 199.2 118.139 199.2C118.566 199.2 118.866 199.127 119.039 198.98C119.213 198.82 119.319 198.627 119.359 198.4C119.413 198.16 119.439 197.913 119.439 197.66V189.72C119.439 189.467 119.413 189.227 119.359 189C119.319 188.76 119.213 188.567 119.039 188.42C118.866 188.26 118.566 188.18 118.139 188.18C118.006 188.18 117.893 188.167 117.799 188.14C117.706 188.113 117.653 187.987 117.639 187.76C117.639 187.653 117.666 187.553 117.719 187.46C117.773 187.367 117.859 187.32 117.979 187.32C118.419 187.333 118.826 187.347 119.199 187.36C119.573 187.373 119.959 187.38 120.359 187.38H126.639C126.786 187.38 126.906 187.413 126.999 187.48C127.106 187.547 127.159 187.673 127.159 187.86L127.219 190.66C127.219 190.793 127.153 190.893 127.019 190.96C126.899 191.027 126.786 191.06 126.679 191.06C126.533 191.06 126.399 191.033 126.279 190.98C126.159 190.913 126.086 190.82 126.059 190.7C125.966 190.1 125.853 189.62 125.719 189.26C125.599 188.887 125.413 188.62 125.159 188.46C124.919 188.287 124.566 188.193 124.099 188.18H121.419V193.26H125.039C125.146 193.273 125.219 193.327 125.259 193.42C125.313 193.513 125.339 193.613 125.339 193.72C125.339 193.813 125.313 193.907 125.259 194C125.219 194.08 125.146 194.12 125.039 194.12H121.419V197.9C121.433 198.073 121.459 198.267 121.499 198.48C121.539 198.68 121.653 198.853 121.839 199C122.039 199.147 122.366 199.213 122.819 199.2H124.659C125.126 199.187 125.479 199.113 125.719 198.98C125.973 198.833 126.173 198.593 126.319 198.26C126.466 197.927 126.626 197.467 126.799 196.88C126.853 196.747 126.939 196.66 127.059 196.62C127.193 196.58 127.333 196.573 127.479 196.6C127.586 196.613 127.693 196.66 127.799 196.74C127.919 196.82 127.973 196.927 127.959 197.06L127.559 199.58C127.519 199.767 127.453 199.887 127.359 199.94C127.279 199.98 127.153 200 126.979 200H120.379C119.979 200 119.586 200 119.199 200C118.826 200.013 118.419 200.033 117.979 200.06ZM135.814 200.4C134.694 200.4 133.668 200.133 132.734 199.6C131.801 199.067 131.048 198.307 130.474 197.32C129.914 196.333 129.634 195.153 129.634 193.78C129.634 192.42 129.901 191.233 130.434 190.22C130.968 189.193 131.721 188.4 132.694 187.84C133.681 187.267 134.841 186.98 136.174 186.98C136.654 186.98 137.148 187.027 137.654 187.12C138.174 187.213 138.654 187.373 139.094 187.6C139.534 187.813 139.888 188.1 140.154 188.46C140.434 188.82 140.574 189.267 140.574 189.8C140.588 190.373 140.414 190.88 140.054 191.32C139.694 191.747 139.188 191.96 138.534 191.96C138.134 191.96 137.848 191.867 137.674 191.68C137.514 191.48 137.441 191.333 137.454 191.24C137.454 191.2 137.534 191.133 137.694 191.04C137.868 190.933 138.034 190.78 138.194 190.58C138.368 190.367 138.454 190.087 138.454 189.74C138.454 189.14 138.254 188.667 137.854 188.32C137.454 187.96 136.888 187.78 136.154 187.78C135.354 187.78 134.634 188.007 133.994 188.46C133.368 188.913 132.874 189.58 132.514 190.46C132.154 191.327 131.974 192.393 131.974 193.66C131.974 194.727 132.161 195.7 132.534 196.58C132.921 197.447 133.454 198.14 134.134 198.66C134.828 199.167 135.628 199.42 136.534 199.42C137.254 199.42 137.868 199.273 138.374 198.98C138.894 198.673 139.361 198.187 139.774 197.52C139.894 197.293 140.108 197.273 140.414 197.46C140.534 197.54 140.628 197.64 140.694 197.76C140.761 197.867 140.748 197.98 140.654 198.1C140.148 198.74 139.668 199.227 139.214 199.56C138.761 199.88 138.268 200.1 137.734 200.22C137.201 200.34 136.561 200.4 135.814 200.4ZM142.55 200.06C142.417 200.06 142.323 200.013 142.27 199.92C142.217 199.827 142.19 199.727 142.19 199.62C142.203 199.393 142.257 199.267 142.35 199.24C142.443 199.213 142.557 199.2 142.69 199.2C143.117 199.2 143.417 199.127 143.59 198.98C143.763 198.82 143.87 198.627 143.91 198.4C143.963 198.16 143.99 197.913 143.99 197.66V189.74C143.99 189.487 143.963 189.24 143.91 189C143.87 188.76 143.763 188.567 143.59 188.42C143.417 188.26 143.117 188.18 142.69 188.18C142.557 188.18 142.443 188.167 142.35 188.14C142.257 188.113 142.203 187.987 142.19 187.76C142.19 187.653 142.217 187.553 142.27 187.46C142.323 187.367 142.417 187.32 142.55 187.32C142.977 187.333 143.377 187.347 143.75 187.36C144.137 187.373 144.53 187.38 144.93 187.38H148.37C149.45 187.393 150.323 187.56 150.99 187.88C151.67 188.2 152.163 188.607 152.47 189.1C152.777 189.593 152.93 190.107 152.93 190.64C152.93 191.347 152.643 192.013 152.07 192.64C151.51 193.267 150.717 193.713 149.69 193.98C150.197 194.78 150.71 195.587 151.23 196.4C151.75 197.2 152.35 197.953 153.03 198.66C153.217 198.807 153.397 198.927 153.57 199.02C153.757 199.113 153.977 199.173 154.23 199.2C154.337 199.213 154.443 199.233 154.55 199.26C154.657 199.273 154.717 199.393 154.73 199.62C154.73 199.727 154.703 199.827 154.65 199.92C154.597 200.013 154.503 200.06 154.37 200.06C154.09 200.047 153.863 200.033 153.69 200.02C153.53 200.02 153.37 200.013 153.21 200C153.05 200 152.837 200 152.57 200C152.023 199.893 151.557 199.7 151.17 199.42C150.797 199.14 150.43 198.753 150.07 198.26C149.697 197.753 149.35 197.24 149.03 196.72C148.71 196.2 148.397 195.693 148.09 195.2C147.917 194.92 147.737 194.72 147.55 194.6C147.377 194.467 147.043 194.4 146.55 194.4H145.97V197.66C145.983 197.913 146.01 198.16 146.05 198.4C146.09 198.627 146.197 198.82 146.37 198.98C146.557 199.127 146.857 199.2 147.27 199.2C147.403 199.2 147.517 199.213 147.61 199.24C147.703 199.267 147.757 199.393 147.77 199.62C147.77 199.727 147.743 199.827 147.69 199.92C147.637 200.013 147.543 200.06 147.41 200.06C146.557 200.02 145.723 200 144.91 200C144.51 200 144.123 200 143.75 200C143.377 200.013 142.977 200.033 142.55 200.06ZM145.97 193.62H147.73C148.41 193.62 148.943 193.527 149.33 193.34C149.73 193.153 150.03 192.913 150.23 192.62C150.43 192.327 150.557 192.02 150.61 191.7C150.677 191.38 150.71 191.087 150.71 190.82C150.71 190.38 150.61 189.953 150.41 189.54C150.223 189.127 149.883 188.787 149.39 188.52C148.91 188.253 148.237 188.12 147.37 188.12C146.797 188.12 146.417 188.233 146.23 188.46C146.057 188.673 145.97 189.113 145.97 189.78V193.62ZM155.948 200.06C155.828 200.06 155.741 200.013 155.688 199.92C155.635 199.827 155.608 199.727 155.608 199.62C155.621 199.393 155.675 199.267 155.768 199.24C155.861 199.213 155.975 199.2 156.108 199.2C156.535 199.2 156.835 199.127 157.008 198.98C157.181 198.82 157.288 198.627 157.328 198.4C157.381 198.16 157.408 197.913 157.408 197.66V189.72C157.408 189.467 157.381 189.227 157.328 189C157.288 188.76 157.181 188.567 157.008 188.42C156.835 188.26 156.535 188.18 156.108 188.18C155.975 188.18 155.861 188.167 155.768 188.14C155.675 188.113 155.621 187.987 155.608 187.76C155.608 187.653 155.635 187.553 155.688 187.46C155.741 187.367 155.828 187.32 155.948 187.32C156.388 187.333 156.795 187.347 157.168 187.36C157.541 187.373 157.928 187.38 158.328 187.38H164.608C164.755 187.38 164.875 187.413 164.968 187.48C165.075 187.547 165.128 187.673 165.128 187.86L165.188 190.66C165.188 190.793 165.121 190.893 164.988 190.96C164.868 191.027 164.755 191.06 164.648 191.06C164.501 191.06 164.368 191.033 164.248 190.98C164.128 190.913 164.055 190.82 164.028 190.7C163.935 190.1 163.821 189.62 163.688 189.26C163.568 188.887 163.381 188.62 163.128 188.46C162.888 188.287 162.535 188.193 162.068 188.18H159.388V193.26H163.008C163.115 193.273 163.188 193.327 163.228 193.42C163.281 193.513 163.308 193.613 163.308 193.72C163.308 193.813 163.281 193.907 163.228 194C163.188 194.08 163.115 194.12 163.008 194.12H159.388V197.9C159.401 198.073 159.428 198.267 159.468 198.48C159.508 198.68 159.621 198.853 159.808 199C160.008 199.147 160.335 199.213 160.788 199.2H162.628C163.095 199.187 163.448 199.113 163.688 198.98C163.941 198.833 164.141 198.593 164.288 198.26C164.435 197.927 164.595 197.467 164.768 196.88C164.821 196.747 164.908 196.66 165.028 196.62C165.161 196.58 165.301 196.573 165.448 196.6C165.555 196.613 165.661 196.66 165.768 196.74C165.888 196.82 165.941 196.927 165.928 197.06L165.528 199.58C165.488 199.767 165.421 199.887 165.328 199.94C165.248 199.98 165.121 200 164.948 200H158.348C157.948 200 157.555 200 157.168 200C156.795 200.013 156.388 200.033 155.948 200.06ZM170.203 200.06C170.07 200.06 169.976 200.013 169.923 199.92C169.87 199.827 169.843 199.727 169.843 199.62C169.856 199.393 169.91 199.267 170.003 199.24C170.096 199.213 170.21 199.2 170.343 199.2C170.77 199.2 171.07 199.127 171.243 198.98C171.416 198.82 171.523 198.627 171.563 198.4C171.616 198.16 171.643 197.913 171.643 197.66V188.12H170.263C169.81 188.133 169.456 188.233 169.203 188.42C168.95 188.593 168.763 188.873 168.643 189.26C168.523 189.633 168.416 190.12 168.323 190.72C168.31 190.84 168.223 190.933 168.063 191C167.916 191.053 167.77 191.08 167.623 191.08C167.53 191.08 167.423 191.047 167.303 190.98C167.196 190.913 167.143 190.813 167.143 190.68L167.203 187.86C167.203 187.673 167.256 187.547 167.363 187.48C167.47 187.413 167.596 187.38 167.743 187.38H177.523C177.67 187.38 177.79 187.413 177.883 187.48C177.99 187.547 178.043 187.673 178.043 187.86L178.123 190.68C178.123 190.813 178.063 190.913 177.943 190.98C177.836 191.047 177.73 191.08 177.623 191.08C177.49 191.08 177.35 191.053 177.203 191C177.056 190.933 176.97 190.84 176.943 190.72C176.85 190.12 176.736 189.633 176.603 189.26C176.483 188.873 176.296 188.593 176.043 188.42C175.803 188.233 175.45 188.133 174.983 188.12H173.623V197.66C173.636 197.913 173.663 198.16 173.703 198.4C173.743 198.627 173.85 198.82 174.023 198.98C174.21 199.127 174.51 199.2 174.923 199.2C175.056 199.2 175.17 199.213 175.263 199.24C175.356 199.267 175.41 199.393 175.423 199.62C175.423 199.727 175.396 199.827 175.343 199.92C175.29 200.013 175.196 200.06 175.063 200.06C174.636 200.033 174.23 200.013 173.843 200C173.47 200 173.09 200 172.703 200C171.903 200 171.07 200.02 170.203 200.06ZM190.248 200.4C189.128 200.4 188.095 200.167 187.148 199.7C186.215 199.22 185.462 198.493 184.888 197.52C184.328 196.533 184.048 195.287 184.048 193.78C184.048 192.42 184.342 191.233 184.928 190.22C185.528 189.193 186.355 188.4 187.408 187.84C188.462 187.267 189.668 186.98 191.028 186.98C191.495 186.98 191.975 187.033 192.468 187.14C192.962 187.247 193.422 187.413 193.848 187.64C194.275 187.853 194.615 188.14 194.868 188.5C195.135 188.86 195.268 189.293 195.268 189.8C195.268 190.347 195.102 190.847 194.768 191.3C194.435 191.74 193.968 191.96 193.368 191.96C193.115 191.96 192.848 191.9 192.568 191.78C192.302 191.647 192.162 191.467 192.148 191.24C192.148 191.2 192.228 191.127 192.388 191.02C192.562 190.913 192.728 190.753 192.888 190.54C193.062 190.313 193.148 190.02 193.148 189.66C193.148 189.087 192.928 188.633 192.488 188.3C192.048 187.953 191.482 187.78 190.788 187.78C189.975 187.78 189.235 188.007 188.568 188.46C187.902 188.913 187.368 189.58 186.968 190.46C186.582 191.327 186.388 192.393 186.388 193.66C186.388 194.86 186.575 195.893 186.948 196.76C187.335 197.613 187.868 198.273 188.548 198.74C189.242 199.193 190.042 199.42 190.948 199.42C191.388 199.42 191.768 199.393 192.088 199.34C192.408 199.287 192.748 199.207 193.108 199.1V197.06C193.108 196.687 193.095 196.393 193.068 196.18C193.042 195.953 192.948 195.787 192.788 195.68C192.628 195.573 192.348 195.52 191.948 195.52C191.815 195.52 191.688 195.507 191.568 195.48C191.462 195.453 191.402 195.327 191.388 195.1C191.388 194.993 191.422 194.893 191.488 194.8C191.568 194.707 191.675 194.66 191.808 194.66C192.235 194.673 192.595 194.687 192.888 194.7C193.182 194.713 193.555 194.72 194.008 194.72C194.462 194.72 194.828 194.713 195.108 194.7C195.402 194.687 195.755 194.673 196.168 194.66C196.302 194.66 196.395 194.707 196.448 194.8C196.515 194.893 196.548 194.993 196.548 195.1C196.535 195.327 196.475 195.453 196.368 195.48C196.262 195.507 196.135 195.52 195.988 195.52C195.615 195.52 195.348 195.58 195.188 195.7C195.042 195.807 194.948 195.973 194.908 196.2C194.882 196.427 194.868 196.713 194.868 197.06V199.42C194.348 199.66 193.862 199.853 193.408 200C192.968 200.147 192.495 200.247 191.988 200.3C191.495 200.367 190.915 200.4 190.248 200.4ZM197.036 200.06C196.903 200.06 196.809 200.013 196.756 199.92C196.703 199.827 196.676 199.727 196.676 199.62C196.689 199.393 196.743 199.267 196.836 199.24C196.929 199.213 197.043 199.2 197.176 199.2C197.536 199.2 197.809 199.127 197.996 198.98C198.183 198.833 198.329 198.64 198.436 198.4C198.556 198.16 198.669 197.913 198.776 197.66L202.276 189.38C202.409 189.06 202.436 188.82 202.356 188.66C202.276 188.487 202.143 188.367 201.956 188.3C201.769 188.22 201.563 188.16 201.336 188.12C201.136 188.08 201.003 188.047 200.936 188.02C200.869 187.98 200.836 187.86 200.836 187.66C200.836 187.433 200.916 187.313 201.076 187.3C201.236 187.273 201.423 187.26 201.636 187.26C202.183 187.26 202.649 187.313 203.036 187.42C203.423 187.527 203.756 187.733 204.036 188.04C204.316 188.333 204.576 188.78 204.816 189.38L208.176 197.66C208.269 197.887 208.369 198.12 208.476 198.36C208.583 198.6 208.723 198.8 208.896 198.96C209.083 199.107 209.316 199.187 209.596 199.2C209.743 199.2 209.856 199.213 209.936 199.24C210.029 199.267 210.083 199.393 210.096 199.62C210.096 199.727 210.063 199.827 209.996 199.92C209.943 200.013 209.856 200.06 209.736 200.06C209.309 200.033 208.936 200.013 208.616 200C208.296 200 207.936 200 207.536 200C206.749 200 205.923 200.02 205.056 200.06C204.923 200.06 204.829 200.013 204.776 199.92C204.723 199.827 204.696 199.727 204.696 199.62C204.709 199.393 204.763 199.267 204.856 199.24C204.949 199.213 205.063 199.2 205.196 199.2C205.849 199.2 206.203 199.08 206.256 198.84C206.323 198.6 206.263 198.207 206.076 197.66L205.396 196H200.456C200.256 196.507 200.109 196.873 200.016 197.1C199.936 197.327 199.883 197.473 199.856 197.54C199.843 197.607 199.829 197.647 199.816 197.66C199.669 198.113 199.589 198.453 199.576 198.68C199.576 198.893 199.683 199.033 199.896 199.1C200.123 199.167 200.496 199.2 201.016 199.2C201.163 199.2 201.276 199.213 201.356 199.24C201.449 199.267 201.503 199.393 201.516 199.62C201.516 199.727 201.483 199.827 201.416 199.92C201.363 200.013 201.276 200.06 201.156 200.06C200.729 200.033 200.356 200.013 200.036 200C199.729 200 199.376 200 198.976 200C198.709 200 198.483 200 198.296 200C198.123 200.013 197.943 200.02 197.756 200.02C197.569 200.033 197.329 200.047 197.036 200.06ZM200.836 195.14H205.036L203.016 190H202.956L200.836 195.14ZM210.402 200.06C210.268 200.06 210.175 200.013 210.122 199.92C210.068 199.827 210.042 199.727 210.042 199.62C210.055 199.393 210.108 199.267 210.202 199.24C210.295 199.213 210.408 199.2 210.542 199.2C210.968 199.2 211.268 199.127 211.442 198.98C211.615 198.82 211.722 198.627 211.762 198.4C211.815 198.16 211.842 197.913 211.842 197.66V189.74C211.842 189.487 211.815 189.24 211.762 189C211.722 188.76 211.615 188.567 211.442 188.42C211.268 188.26 210.968 188.18 210.542 188.18C210.408 188.18 210.295 188.167 210.202 188.14C210.108 188.113 210.055 187.987 210.042 187.76C210.042 187.653 210.068 187.553 210.122 187.46C210.175 187.367 210.268 187.32 210.402 187.32C210.828 187.333 211.228 187.347 211.602 187.36C211.988 187.373 212.382 187.38 212.782 187.38H216.222C217.302 187.393 218.175 187.56 218.842 187.88C219.522 188.2 220.015 188.607 220.322 189.1C220.628 189.593 220.782 190.107 220.782 190.64C220.782 191.347 220.495 192.013 219.922 192.64C219.362 193.267 218.568 193.713 217.542 193.98C218.048 194.78 218.562 195.587 219.082 196.4C219.602 197.2 220.202 197.953 220.882 198.66C221.068 198.807 221.248 198.927 221.422 199.02C221.608 199.113 221.828 199.173 222.082 199.2C222.188 199.213 222.295 199.233 222.402 199.26C222.508 199.273 222.568 199.393 222.582 199.62C222.582 199.727 222.555 199.827 222.502 199.92C222.448 200.013 222.355 200.06 222.222 200.06C221.942 200.047 221.715 200.033 221.542 200.02C221.382 200.02 221.222 200.013 221.062 200C220.902 200 220.688 200 220.422 200C219.875 199.893 219.408 199.7 219.022 199.42C218.648 199.14 218.282 198.753 217.922 198.26C217.548 197.753 217.202 197.24 216.882 196.72C216.562 196.2 216.248 195.693 215.942 195.2C215.768 194.92 215.588 194.72 215.402 194.6C215.228 194.467 214.895 194.4 214.402 194.4H213.822V197.66C213.835 197.913 213.862 198.16 213.902 198.4C213.942 198.627 214.048 198.82 214.222 198.98C214.408 199.127 214.708 199.2 215.122 199.2C215.255 199.2 215.368 199.213 215.462 199.24C215.555 199.267 215.608 199.393 215.622 199.62C215.622 199.727 215.595 199.827 215.542 199.92C215.488 200.013 215.395 200.06 215.262 200.06C214.408 200.02 213.575 200 212.762 200C212.362 200 211.975 200 211.602 200C211.228 200.013 210.828 200.033 210.402 200.06ZM213.822 193.62H215.582C216.262 193.62 216.795 193.527 217.182 193.34C217.582 193.153 217.882 192.913 218.082 192.62C218.282 192.327 218.408 192.02 218.462 191.7C218.528 191.38 218.562 191.087 218.562 190.82C218.562 190.38 218.462 189.953 218.262 189.54C218.075 189.127 217.735 188.787 217.242 188.52C216.762 188.253 216.088 188.12 215.222 188.12C214.648 188.12 214.268 188.233 214.082 188.46C213.908 188.673 213.822 189.113 213.822 189.78V193.62ZM223.8 200.06C223.68 200.06 223.593 200.013 223.54 199.92C223.486 199.827 223.46 199.727 223.46 199.62C223.473 199.393 223.526 199.267 223.62 199.24C223.713 199.213 223.826 199.2 223.96 199.2C224.386 199.2 224.686 199.127 224.86 198.98C225.033 198.82 225.14 198.627 225.18 198.4C225.233 198.16 225.26 197.913 225.26 197.66V189.72C225.26 189.467 225.233 189.227 225.18 189C225.14 188.76 225.033 188.567 224.86 188.42C224.686 188.26 224.386 188.18 223.96 188.18C223.826 188.18 223.713 188.167 223.62 188.14C223.526 188.113 223.473 187.987 223.46 187.76C223.46 187.653 223.486 187.553 223.54 187.46C223.593 187.367 223.68 187.32 223.8 187.32C224.24 187.333 224.646 187.347 225.02 187.36C225.393 187.373 225.78 187.38 226.18 187.38H229.3C230.58 187.38 231.74 187.633 232.78 188.14C233.82 188.647 234.646 189.373 235.26 190.32C235.873 191.267 236.18 192.413 236.18 193.76C236.18 194.827 235.973 195.753 235.56 196.54C235.146 197.327 234.593 197.98 233.9 198.5C233.206 199.007 232.426 199.387 231.56 199.64C230.706 199.88 229.833 200 228.94 200H226.18C225.78 200 225.393 200 225.02 200C224.646 200.013 224.24 200.033 223.8 200.06ZM229.24 199.26C230.32 199.26 231.193 199.033 231.86 198.58C232.526 198.113 233.006 197.467 233.3 196.64C233.606 195.813 233.76 194.853 233.76 193.76C233.76 192.667 233.566 191.693 233.18 190.84C232.793 189.987 232.226 189.32 231.48 188.84C230.746 188.347 229.853 188.1 228.8 188.1C228.586 188.1 228.306 188.107 227.96 188.12C227.613 188.12 227.373 188.12 227.24 188.12V197.9C227.24 198.433 227.4 198.793 227.72 198.98C228.053 199.167 228.56 199.26 229.24 199.26ZM238.057 200.06C237.937 200.06 237.851 200.013 237.797 199.92C237.744 199.827 237.717 199.727 237.717 199.62C237.731 199.393 237.784 199.267 237.877 199.24C237.971 199.213 238.084 199.2 238.217 199.2C238.644 199.2 238.944 199.127 239.117 198.98C239.291 198.82 239.397 198.627 239.437 198.4C239.491 198.16 239.517 197.913 239.517 197.66V189.72C239.517 189.467 239.491 189.227 239.437 189C239.397 188.76 239.291 188.567 239.117 188.42C238.944 188.26 238.644 188.18 238.217 188.18C238.084 188.18 237.971 188.167 237.877 188.14C237.784 188.113 237.731 187.987 237.717 187.76C237.717 187.653 237.744 187.553 237.797 187.46C237.851 187.367 237.937 187.32 238.057 187.32C238.497 187.333 238.904 187.347 239.277 187.36C239.651 187.373 240.037 187.38 240.437 187.38H246.717C246.864 187.38 246.984 187.413 247.077 187.48C247.184 187.547 247.237 187.673 247.237 187.86L247.297 190.66C247.297 190.793 247.231 190.893 247.097 190.96C246.977 191.027 246.864 191.06 246.757 191.06C246.611 191.06 246.477 191.033 246.357 190.98C246.237 190.913 246.164 190.82 246.137 190.7C246.044 190.1 245.931 189.62 245.797 189.26C245.677 188.887 245.491 188.62 245.237 188.46C244.997 188.287 244.644 188.193 244.177 188.18H241.497V193.26H245.117C245.224 193.273 245.297 193.327 245.337 193.42C245.391 193.513 245.417 193.613 245.417 193.72C245.417 193.813 245.391 193.907 245.337 194C245.297 194.08 245.224 194.12 245.117 194.12H241.497V197.9C241.511 198.073 241.537 198.267 241.577 198.48C241.617 198.68 241.731 198.853 241.917 199C242.117 199.147 242.444 199.213 242.897 199.2H244.737C245.204 199.187 245.557 199.113 245.797 198.98C246.051 198.833 246.251 198.593 246.397 198.26C246.544 197.927 246.704 197.467 246.877 196.88C246.931 196.747 247.017 196.66 247.137 196.62C247.271 196.58 247.411 196.573 247.557 196.6C247.664 196.613 247.771 196.66 247.877 196.74C247.997 196.82 248.051 196.927 248.037 197.06L247.637 199.58C247.597 199.767 247.531 199.887 247.437 199.94C247.357 199.98 247.231 200 247.057 200H240.457C240.057 200 239.664 200 239.277 200C238.904 200.013 238.497 200.033 238.057 200.06ZM249.972 200.06C249.839 200.06 249.746 200.013 249.692 199.92C249.639 199.827 249.612 199.727 249.612 199.62C249.626 199.393 249.679 199.267 249.772 199.24C249.866 199.213 249.979 199.2 250.112 199.2C250.539 199.2 250.832 199.127 250.992 198.98C251.166 198.82 251.272 198.627 251.312 198.4C251.352 198.16 251.372 197.913 251.372 197.66L251.412 189.72C251.412 189.093 251.306 188.693 251.092 188.52C250.879 188.347 250.539 188.213 250.072 188.12C249.872 188.08 249.739 188.047 249.672 188.02C249.606 187.98 249.572 187.86 249.572 187.66C249.572 187.433 249.652 187.313 249.812 187.3C249.972 187.273 250.159 187.26 250.372 187.26C251.119 187.26 251.719 187.32 252.172 187.44C252.639 187.56 253.046 187.773 253.392 188.08C253.752 188.387 254.139 188.82 254.552 189.38L260.032 196.58H260.092L260.052 189.72C260.052 189.467 260.032 189.227 259.992 189C259.952 188.76 259.846 188.567 259.672 188.42C259.512 188.26 259.219 188.18 258.792 188.18C258.659 188.18 258.546 188.167 258.452 188.14C258.359 188.113 258.299 187.987 258.272 187.76C258.272 187.653 258.299 187.553 258.352 187.46C258.419 187.367 258.512 187.32 258.632 187.32C258.926 187.333 259.159 187.347 259.332 187.36C259.519 187.36 259.699 187.367 259.872 187.38C260.059 187.38 260.286 187.38 260.552 187.38C260.819 187.38 261.039 187.38 261.212 187.38C261.386 187.367 261.559 187.36 261.732 187.36C261.919 187.347 262.152 187.333 262.432 187.32C262.566 187.32 262.659 187.367 262.712 187.46C262.766 187.553 262.792 187.653 262.792 187.76C262.779 187.987 262.726 188.113 262.632 188.14C262.552 188.167 262.439 188.18 262.292 188.18C261.879 188.18 261.586 188.26 261.412 188.42C261.239 188.567 261.132 188.76 261.092 189C261.066 189.227 261.046 189.467 261.032 189.72L260.992 199.8C260.979 199.907 260.912 199.973 260.792 200C260.686 200.04 260.586 200.06 260.492 200.06C260.239 200.06 260.046 199.973 259.912 199.8L252.372 189.72H252.312L252.352 197.66C252.366 197.913 252.386 198.16 252.412 198.4C252.452 198.627 252.559 198.82 252.732 198.98C252.906 199.127 253.199 199.2 253.612 199.2C253.759 199.2 253.879 199.213 253.972 199.24C254.066 199.267 254.119 199.393 254.132 199.62C254.132 199.727 254.099 199.827 254.032 199.92C253.979 200.013 253.892 200.06 253.772 200.06C253.492 200.047 253.252 200.033 253.052 200.02C252.866 200.02 252.679 200.013 252.492 200C252.319 200 252.099 200 251.832 200C251.566 200 251.346 200 251.172 200C251.012 200.013 250.846 200.02 250.672 200.02C250.499 200.033 250.266 200.047 249.972 200.06Z" fill="#E26575"/>
<path d="M119.957 210.928V209.776H121.397V208.56C121.397 207.621 121.643 206.933 122.133 206.496C122.624 206.059 123.253 205.84 124.021 205.84C124.395 205.84 124.731 205.877 125.029 205.952C125.328 206.016 125.648 206.123 125.989 206.272L125.541 207.328C125.051 207.136 124.592 207.04 124.165 207.04C123.771 207.04 123.461 207.163 123.237 207.408C123.013 207.653 122.901 208 122.901 208.448V209.776H125.429V210.928H122.901V220.496H121.397V210.928H119.957ZM126.949 205.856H128.421V218H126.949V205.856ZM130.541 213.872C130.541 212.539 130.877 211.499 131.549 210.752C132.231 210.005 133.197 209.632 134.445 209.632C135.693 209.632 136.653 210.005 137.325 210.752C138.007 211.499 138.349 212.539 138.349 213.872C138.349 215.205 138.007 216.251 137.325 217.008C136.653 217.755 135.693 218.128 134.445 218.128C133.197 218.128 132.231 217.755 131.549 217.008C130.877 216.251 130.541 215.205 130.541 213.872ZM132.077 213.872C132.077 214.875 132.279 215.637 132.685 216.16C133.101 216.683 133.687 216.944 134.445 216.944C135.202 216.944 135.783 216.683 136.189 216.16C136.605 215.637 136.813 214.875 136.813 213.872C136.813 212.869 136.605 212.112 136.189 211.6C135.783 211.077 135.202 210.816 134.445 210.816C133.687 210.816 133.101 211.077 132.685 211.6C132.279 212.112 132.077 212.869 132.077 213.872ZM149.87 209.776H151.374L149.07 218H147.054L145.422 211.824L143.822 218H141.838L139.534 209.776H141.038L142.894 216.56L144.67 209.776H146.174L148.03 216.56L149.87 209.776ZM152.556 213.872C152.556 212.528 152.892 211.488 153.564 210.752C154.236 210.005 155.186 209.632 156.412 209.632C157.618 209.632 158.487 209.995 159.02 210.72C159.564 211.435 159.836 212.469 159.836 213.824V214.08H154.092C154.114 215.008 154.332 215.717 154.748 216.208C155.164 216.699 155.762 216.944 156.54 216.944C156.967 216.944 157.378 216.896 157.772 216.8C158.167 216.693 158.604 216.533 159.084 216.32L159.516 217.344C158.972 217.621 158.455 217.824 157.964 217.952C157.474 218.069 156.972 218.128 156.46 218.128C155.223 218.128 154.263 217.755 153.58 217.008C152.898 216.261 152.556 215.216 152.556 213.872ZM156.412 210.816C155.783 210.816 155.276 210.997 154.892 211.36C154.519 211.723 154.274 212.256 154.156 212.96H158.252C158.178 212.224 157.991 211.685 157.692 211.344C157.394 210.992 156.967 210.816 156.412 210.816ZM163.021 209.776L163.197 210.912C163.773 210.059 164.531 209.632 165.469 209.632C165.768 209.632 166.12 209.685 166.525 209.792L166.285 211.136C165.827 211.029 165.469 210.976 165.213 210.976C164.765 210.976 164.392 211.067 164.093 211.248C163.805 211.419 163.544 211.712 163.309 212.128V218H161.805V209.776H163.021ZM172.022 216.304C172.502 216.507 172.912 216.656 173.254 216.752C173.606 216.848 173.968 216.896 174.342 216.896C174.822 216.896 175.195 216.795 175.462 216.592C175.739 216.389 175.878 216.091 175.878 215.696C175.878 215.451 175.803 215.253 175.654 215.104C175.515 214.944 175.355 214.827 175.174 214.752C175.003 214.677 174.678 214.56 174.198 214.4C174.123 214.379 173.84 214.283 173.35 214.112C172.859 213.941 172.48 213.675 172.214 213.312C171.958 212.949 171.83 212.501 171.83 211.968C171.83 211.307 172.086 210.752 172.598 210.304C173.11 209.856 173.862 209.632 174.854 209.632C175.27 209.632 175.659 209.68 176.022 209.776C176.395 209.872 176.784 210 177.19 210.16L176.79 211.344C176.438 211.205 176.107 211.093 175.798 211.008C175.499 210.923 175.184 210.88 174.854 210.88C174.352 210.88 173.974 210.981 173.718 211.184C173.462 211.376 173.334 211.632 173.334 211.952C173.334 212.251 173.435 212.475 173.638 212.624C173.84 212.763 174.166 212.912 174.614 213.072C174.731 213.104 174.838 213.141 174.934 213.184L175.318 213.328C175.766 213.477 176.123 213.627 176.39 213.776C176.667 213.925 176.902 214.155 177.094 214.464C177.286 214.763 177.382 215.163 177.382 215.664C177.382 216.453 177.099 217.067 176.534 217.504C175.979 217.931 175.254 218.144 174.358 218.144C173.835 218.144 173.35 218.091 172.902 217.984C172.454 217.867 172.006 217.712 171.558 217.52L172.022 216.304ZM183.875 209.632C184.749 209.632 185.416 209.883 185.875 210.384C186.344 210.885 186.579 211.611 186.579 212.56V218H185.075V212.672C185.075 212.021 184.947 211.552 184.691 211.264C184.445 210.965 184.045 210.816 183.491 210.816C182.989 210.816 182.531 210.933 182.115 211.168C181.699 211.392 181.357 211.707 181.091 212.112V218H179.587V205.856H181.091V210.816C181.816 210.027 182.744 209.632 183.875 209.632ZM188.541 213.872C188.541 212.539 188.877 211.499 189.549 210.752C190.231 210.005 191.197 209.632 192.445 209.632C193.693 209.632 194.653 210.005 195.325 210.752C196.007 211.499 196.349 212.539 196.349 213.872C196.349 215.205 196.007 216.251 195.325 217.008C194.653 217.755 193.693 218.128 192.445 218.128C191.197 218.128 190.231 217.755 189.549 217.008C188.877 216.251 188.541 215.205 188.541 213.872ZM190.077 213.872C190.077 214.875 190.279 215.637 190.685 216.16C191.101 216.683 191.687 216.944 192.445 216.944C193.202 216.944 193.783 216.683 194.189 216.16C194.605 215.637 194.813 214.875 194.813 213.872C194.813 212.869 194.605 212.112 194.189 211.6C193.783 211.077 193.202 210.816 192.445 210.816C191.687 210.816 191.101 211.077 190.685 211.6C190.279 212.112 190.077 212.869 190.077 213.872ZM202.222 209.632C203.363 209.632 204.249 209.989 204.878 210.704C205.518 211.408 205.838 212.421 205.838 213.744C205.838 215.12 205.459 216.197 204.702 216.976C203.955 217.744 202.926 218.128 201.614 218.128C200.995 218.128 200.425 218.053 199.902 217.904V221.92H198.398V209.776H199.614L199.806 210.768C200.094 210.395 200.441 210.112 200.846 209.92C201.262 209.728 201.721 209.632 202.222 209.632ZM201.598 216.944C202.441 216.944 203.102 216.667 203.582 216.112C204.062 215.547 204.302 214.757 204.302 213.744C204.302 212.805 204.11 212.085 203.726 211.584C203.353 211.072 202.819 210.816 202.126 210.816C201.582 210.816 201.113 210.96 200.718 211.248C200.334 211.536 200.062 211.936 199.902 212.448V216.704C200.446 216.864 201.011 216.944 201.598 216.944Z" fill="#E26575"/>
</svg>
